<?xml version="1.0" encoding="UTF-8"?><svg id="Layer_1" xmlns="http://www.w3.org/2000/svg" viewBox="0 0 17 17"><defs><style>.cls-1{fill:#fff;stroke-width:0px;}</style></defs><path class="cls-1" d="m4.15,13.1c-.3,0-.5-.1-.8-.2-.5-.2-.8-.6-.9-1.1-.1-.2-.2-.3-.2-.5-.9-.3-1.4-1-1.5-1.9v-5.2C.75,2.6,1.85,1.3,3.35,1.1h6.6c1.6,0,2.8,1,3.2,2.6v4.6c0,1.5-1,2.7-2.5,3.1h-.3c-.1,0-.3.1-.4.1l-2.2.1c-.5.2-1,.4-1.4.6-.5.2-1,.5-1.5.7-.2.2-.5.2-.7.2Zm-.7-10.9c-1,.2-1.7,1-1.7,2.1v5.1c.1.6.4.9,1.1,1.1l.4.1v.4c0,.1,0,.2.1.5s.2.5.4.5c.2.1.4.1.6,0,.5-.2,1-.4,1.4-.6.5-.2.9-.4,1.4-.6.2-.2.4-.2.6-.2h2.4c.1,0,.2-.1.3-.1,1-.3,1.7-1.1,1.7-2.1V4c-.3-1.1-1.1-1.8-2.2-1.8H3.45Z"/><path class="cls-1" d="m12.95,15.9c-.4,0-.8-.1-1.1-.4-.5-.4-.9-.8-1.3-1.2h-1.6c-.5,0-1-.1-1.4-.4-.3-.1-.4-.4-.4-.7s.2-.6.4-.7c.3-.2.7-.4,1.2-.4h1.7c1.7,0,2.9-1.1,3.2-2.8v-4.3h.1c.1-.3.4-.4.6-.5.2,0,.5,0,.7.2.6.5,1,1.2,1.1,1.9v.8c.1.6.1,1.3.1,2v2.3c0,1.1-.6,2-1.6,2.4v.4c-.1.6-.6,1.1-1.2,1.3-.2.1-.3.1-.5.1Zm-4.5-2.7c.2,0,.3.1.5.1h1.6c.1,0,.4,0,.7.2.4.4.8.8,1.3,1.2.2.2.4.2.7.1.2-.1.4-.3.5-.5v-.7l.3-.3h.1c.8-.2,1.1-.7,1.1-1.5v-2.4c0-.7,0-1.4-.1-1.9v-.8c-.1-.3-.2-.6-.5-.9v3.7c-.3,2.2-2.1,3.7-4.2,3.7h-1.7c-.1,0-.2,0-.3,0Zm-.4.2h0Z"/></svg>