<svg width="25" height="24" viewBox="0 0 25 24" fill="none" xmlns="http://www.w3.org/2000/svg">
<path d="M5.62817 8.15381V15.1282C5.73074 16.4615 5.8333 18.2051 5.93587 19.4359C6.03843 20.8718 7.2692 22 8.7051 22H16.2948C17.7307 22 18.9615 20.8718 19.0641 19.4359C19.1666 18.2051 19.2692 16.4615 19.3718 15.1282C19.4743 13.5897 19.3718 10.4102 19.3718 8.15381H5.62817Z" fill="#FAF5FF"/>
<path d="M19.6795 5.07692H17.1154L16.2949 3.53846C15.7821 2.61539 14.859 2 13.8333 2H11.3718C10.3462 2 9.32051 2.61539 8.91026 3.53846L7.88462 5.07692H5.32051C4.91026 5.07692 4.5 5.48718 4.5 5.89744C4.5 6.30769 4.91026 6.71795 5.32051 6.71795H19.6795C20.0897 6.71795 20.5 6.41026 20.5 5.89744C20.5 5.38462 20.0897 5.07692 19.6795 5.07692ZM9.62821 5.07692L10.141 4.25641C10.3462 3.84615 10.7564 3.53846 11.2692 3.53846H13.7308C14.2436 3.53846 14.6538 3.74359 14.859 4.25641L15.3718 5.07692H9.62821Z" fill="#FAF5FF"/>
</svg>
