<svg xmlns="http://www.w3.org/2000/svg" width="18.042" height="12.878" viewBox="0 0 18.042 12.878">
  <g id="Icon_zocial-discordapp" data-name="Icon zocial-discordapp" transform="translate(-10.499 7.591)">
    <path id="Exclusion_1" data-name="Exclusion 1" d="M4.715,12.878h0A6.239,6.239,0,0,1,1.076,11.67,4.361,4.361,0,0,1,0,10.544,20.53,20.53,0,0,1,2.226,1.608,7.7,7.7,0,0,1,6.536,0h.019l.153.185A10.394,10.394,0,0,0,2.659,2.192L2.7,2.173c.1-.052.418-.213.875-.413A12.407,12.407,0,0,1,7.08.787L7.109.782l.023,0,.01,0a1.347,1.347,0,0,1,.2-.02A13.14,13.14,0,0,1,10.465.726,12.942,12.942,0,0,1,15.12,2.194,10.341,10.341,0,0,0,11.27.247L11.487,0h.019a7.671,7.671,0,0,1,4.31,1.608,20.732,20.732,0,0,1,2.226,8.937l-.008.011,0,.005a5.752,5.752,0,0,1-4.706,2.3l-.053-.063c-.146-.175-.591-.708-.967-1.173A4.939,4.939,0,0,0,15.1,9.8a8.869,8.869,0,0,1-1.779.912,10.98,10.98,0,0,1-2.24.664,10.5,10.5,0,0,1-1.942.181,11.194,11.194,0,0,1-2.063-.2A11.668,11.668,0,0,1,4.808,10.7a9.012,9.012,0,0,1-1.129-.525.446.446,0,0,0-.066-.038l0,0h0A.524.524,0,0,1,3.54,10.1l-.03-.019a.059.059,0,0,0-.031-.014c-.229-.128-.377-.225-.43-.26a4.863,4.863,0,0,0,2.7,1.807c-.381.484-.844,1.039-1.025,1.255l-.011.013Zm7.128-7.289a1.626,1.626,0,0,0-1.578,1.7,1.645,1.645,0,0,0,1.578,1.7,1.625,1.625,0,0,0,1.576-1.7A1.644,1.644,0,0,0,11.842,5.589Zm-5.643,0a1.626,1.626,0,0,0-1.578,1.7A1.645,1.645,0,0,0,6.2,8.992a1.625,1.625,0,0,0,1.576-1.7,1.7,1.7,0,0,0-.483-1.237A1.521,1.521,0,0,0,6.2,5.589Z" transform="translate(10.499 -7.591)" fill="#fff"/>
  </g>
</svg>
