<svg width="24" height="24" viewBox="0 0 24 24" fill="none" xmlns="http://www.w3.org/2000/svg">
<path d="M11.9999 16C11.7949 16 11.5989 15.916 11.4579 15.768L6.20794 10.268C5.75294 9.792 6.09094 9 6.74994 9H9.49994V3.25C9.49994 2.561 10.0609 2 10.7499 2H13.2499C13.9389 2 14.4999 2.561 14.4999 3.25V9H17.2499C17.9089 9 18.2469 9.792 17.7919 10.268L12.5419 15.768C12.4009 15.916 12.2049 16 11.9999 16Z" fill="#FCFCFC"/>
<path d="M22.25 22H1.75C0.785 22 0 21.215 0 20.25V19.75C0 18.785 0.785 18 1.75 18H22.25C23.215 18 24 18.785 24 19.75V20.25C24 21.215 23.215 22 22.25 22Z" fill="#FCFCFC"/>
</svg>
