<svg width="24" height="24" viewBox="0 0 24 24" fill="none" xmlns="http://www.w3.org/2000/svg">
<path fill-rule="evenodd" clip-rule="evenodd" d="M3.83398 14.088L2.21923 15.705C1.78048 16.1445 1.78048 16.857 2.21998 17.2957C2.65948 17.7345 3.37198 17.7345 3.81073 17.295L5.81023 15.294C7.23373 16.0312 8.95273 16.6485 10.89 16.8247V19.5C10.89 20.121 11.394 20.625 12.015 20.625C12.636 20.625 13.14 20.121 13.14 19.5V16.8217C14.7502 16.671 16.2082 16.2172 17.4705 15.6435L19.8697 18.045C20.3085 18.4845 21.021 18.4845 21.4605 18.0457C21.9 17.607 21.9 16.8945 21.4612 16.455L19.527 14.5192C21.4695 13.2705 22.5952 11.9925 22.5952 11.9925C23.0047 11.526 22.959 10.815 22.4925 10.4047C22.026 9.99523 21.315 10.041 20.9047 10.5075C20.9047 10.5075 17.2942 14.625 12 14.625C6.70573 14.625 3.09523 10.5075 3.09523 10.5075C2.68498 10.041 1.97398 9.99523 1.50748 10.4047C1.04098 10.815 0.995227 11.526 1.40473 11.9925C1.40473 11.9925 2.28598 12.993 3.83398 14.088Z" fill="#FCFCFC"/>
</svg>
