<svg width="24" height="24" viewBox="0 0 24 24" fill="none" xmlns="http://www.w3.org/2000/svg">
<path d="M12.0001 5C8.24273 5 5.43614 7.4404 3.76749 9.43934C2.51533 10.9394 2.51533 13.0606 3.76749 14.5607C5.43614 16.5596 8.24273 19 12.0001 19C15.7575 19 18.5641 16.5596 20.2327 14.5607C21.4849 13.0606 21.4849 10.9394 20.2327 9.43934C18.5641 7.4404 15.7575 5 12.0001 5Z" stroke="#FCFCFC" stroke-width="1.5" stroke-linecap="round" stroke-linejoin="round"/>
<path d="M12 15C13.6569 15 15 13.6569 15 12C15 10.3431 13.6569 9 12 9C10.3431 9 9 10.3431 9 12C9 13.6569 10.3431 15 12 15Z" stroke="#FCFCFC" stroke-width="1.5" stroke-linecap="round" stroke-linejoin="round"/>
</svg>
