<svg width="25" height="24" viewBox="0 0 25 24" fill="none" xmlns="http://www.w3.org/2000/svg">
<path d="M18.6736 6.88273L13.7504 7.4477L16.9365 1.22792C17.0071 1.08488 16.9965 0.916351 16.9072 0.782958C16.8141 0.654384 16.6625 0.584729 16.5035 0.60297L9.34218 1.42479C9.17033 1.44451 9.02321 1.56585 8.97703 1.73219L5.86427 12.5355C5.8237 12.6751 5.85383 12.8239 5.94926 12.9349C6.04038 13.0463 6.18624 13.1035 6.32802 13.0873L9.97957 12.6682L7.04746 22.8458C6.98802 23.0484 7.08238 23.2639 7.27134 23.3554C7.3493 23.39 7.42958 23.4069 7.51121 23.3975C7.6272 23.3842 7.73726 23.3194 7.81283 23.2193L19.0738 7.56366C19.175 7.42148 19.1801 7.2381 19.0936 7.09131C19.0071 6.94455 18.8454 6.86301 18.6736 6.88273Z" fill="#FCFCFC"/>
</svg>
