<svg width="25" height="24" viewBox="0 0 25 24" fill="none" xmlns="http://www.w3.org/2000/svg">
<path d="M7.84875 7.91254L13.5638 16.1625L8.57626 22.2225C8.50646 22.3086 8.41848 22.3781 8.31863 22.4261C8.21878 22.474 8.10953 22.4993 7.99875 22.5C7.87897 22.5052 7.75968 22.4816 7.6509 22.4312C7.54212 22.3808 7.44701 22.305 7.37356 22.2102C7.3001 22.1155 7.25043 22.0045 7.22871 21.8866C7.207 21.7687 7.21387 21.6472 7.24875 21.5325L9.98625 12.75H6.49875C6.36945 12.7497 6.24244 12.7159 6.13003 12.652C6.01763 12.5881 5.92366 12.4962 5.85725 12.3853C5.79083 12.2743 5.75423 12.1481 5.75099 12.0188C5.74775 11.8896 5.77798 11.7617 5.83875 11.6475L7.84875 7.91254ZM19.1738 8.66254C19.1109 8.53771 19.0143 8.43294 18.8951 8.36006C18.7758 8.28717 18.6385 8.24906 18.4988 8.25004H14.5238L17.6513 2.61754C17.7171 2.50352 17.7517 2.37419 17.7517 2.24254C17.7517 2.11088 17.7171 1.98155 17.6513 1.86754C17.5842 1.75448 17.4887 1.66102 17.3742 1.59652C17.2596 1.53202 17.1302 1.49875 16.9988 1.50004H11.7488C11.6131 1.5004 11.48 1.53756 11.3638 1.60756C11.2476 1.67756 11.1525 1.77778 11.0888 1.89754L9.44626 4.95004L15.5438 13.7625L19.0763 9.47254C19.166 9.36278 19.2228 9.22985 19.24 9.08914C19.2573 8.94843 19.2343 8.80572 19.1738 8.67754V8.66254ZM19.8638 21.3075L15.0488 14.37L9.04875 5.69254L6.36375 1.82254C6.24602 1.67066 6.07448 1.56977 5.88453 1.54068C5.69458 1.51159 5.50071 1.55652 5.34292 1.6662C5.18513 1.77589 5.07546 1.94195 5.03654 2.13013C4.99762 2.31832 5.03242 2.51426 5.13375 2.67754L8.24625 7.17754L14.0588 15.57L18.6338 22.1775C18.7473 22.3404 18.9208 22.4516 19.1162 22.4868C19.3117 22.5219 19.5131 22.4781 19.6763 22.365C19.8391 22.2515 19.9504 22.078 19.9855 21.8825C20.0206 21.6871 19.9769 21.4857 19.8638 21.3225V21.3075Z" fill="#FCFCFC"/>
</svg>
