<svg width="25" height="24" viewBox="0 0 25 24" fill="none" xmlns="http://www.w3.org/2000/svg">
<path d="M18.5899 5.67986H17.4274C16.9304 5.67986 16.8061 5.29969 16.5739 4.82745C16.0194 3.70008 14.9052 3 13.6659 3H10.3341C9.09474 3 7.98055 3.70008 7.42614 4.82745C7.19395 5.29969 7.06955 5.67986 6.57261 5.67986H5.41014C3.24735 5.67986 1.5 7.45956 1.5 9.65517V17.0247C1.5 19.2239 3.25083 21 5.41014 21H18.5899C20.7492 21 22.5 19.2238 22.5 17.0247V9.65517C22.5 7.45956 20.7527 5.67986 18.5899 5.67986ZM7.3871 14.9704C7.22964 14.9704 7.07218 14.9093 6.95208 14.7871L5.63413 13.4472C5.39386 13.2029 5.39386 12.8069 5.63413 12.5627C5.87436 12.3184 6.26392 12.3184 6.50419 12.5627L6.77473 12.8377C6.86197 9.98397 9.17226 7.68974 12 7.68974C13.3954 7.68974 14.7081 8.24275 15.6963 9.24694C15.9366 9.49117 15.9367 9.88718 15.6965 10.1315C15.4562 10.3758 15.0667 10.3759 14.8264 10.1317C14.0706 9.36366 13.0669 8.94066 12 8.94066C9.85308 8.94066 8.0963 10.6702 8.00627 12.8308L8.27008 12.5627C8.51031 12.3184 8.89988 12.3184 9.14014 12.5627C9.38041 12.8069 9.38041 13.2029 9.14014 13.4472L7.82215 14.7872C7.70201 14.9093 7.54455 14.9704 7.3871 14.9704ZM18.3659 13.4473C18.1257 13.6915 17.7361 13.6915 17.4958 13.4473L17.2253 13.1722C17.1381 16.0259 14.8277 18.3202 12 18.3202C10.6046 18.3202 9.29186 17.7672 8.30371 16.763C8.0634 16.5188 8.06332 16.1227 8.30355 15.8784C8.54378 15.6342 8.93334 15.634 9.17361 15.8783C9.92937 16.6463 10.9331 17.0693 12 17.0693C14.1469 17.0693 15.9037 15.3397 15.9937 13.1791L15.7299 13.4473C15.4897 13.6915 15.1001 13.6915 14.8599 13.4473C14.6196 13.203 14.6196 12.807 14.8599 12.5627L16.1778 11.2228C16.2979 11.1007 16.4554 11.0396 16.6128 11.0396C16.7702 11.0396 16.9277 11.1006 17.0478 11.2228L18.3658 12.5627C18.6061 12.807 18.6061 13.203 18.3659 13.4473Z" fill="#FCFCFC"/>
</svg>
