<?xml version="1.0" encoding="utf-8"?>
<!-- Generator: Adobe Illustrator 28.0.0, SVG Export Plug-In . SVG Version: 6.00 Build 0)  -->
<svg version="1.1" id="u:location-arrow" xmlns="http://www.w3.org/2000/svg" xmlns:xlink="http://www.w3.org/1999/xlink" x="0px"
	 y="0px" viewBox="0 0 17 17" style="enable-background:new 0 0 17 17;" xml:space="preserve">
<style type="text/css">
	.st0{fill:none;stroke:#FFFFFF;stroke-miterlimit:10;}
</style>
<g>
	<path class="st0" d="M2.8,11C2,10.8,1.4,10.3,1.3,9.4c0-0.1,0-0.3,0-0.4c0-1.6,0-3.1,0-4.7c0-1.3,0.9-2.4,2.2-2.6
		c0.2,0,0.3,0,0.5,0c2,0,4,0,6,0c1.4,0,2.4,0.9,2.7,2.2c0,0.2,0,0.3,0,0.5c0,1.3,0,2.7,0,4c0,1.3-0.9,2.3-2.1,2.6
		c-0.2,0-0.4,0.1-0.6,0.1c-0.7,0-1.4,0-2.1,0c-0.1,0-0.2,0-0.3,0.1c-1,0.4-1.9,0.9-2.9,1.3c-0.7,0.3-1.5-0.1-1.7-0.8
		C2.8,11.3,2.8,11.2,2.8,11z"/>
	<path class="st0" d="M15.8,9.4c0,0.8,0,1.5,0,2.3c0,1-0.5,1.7-1.5,2c0,0-0.1,0.1-0.1,0.1c0,0.2,0,0.4,0,0.6c-0.2,0.9-1.3,1.3-2,0.7
		c-0.5-0.4-0.9-0.8-1.3-1.2c-0.1-0.1-0.2-0.1-0.3-0.1c-0.5,0-1,0-1.6,0c-0.4,0-0.8-0.1-1.2-0.3c-0.2-0.1-0.2-0.4,0-0.5
		c0.3-0.2,0.6-0.3,1-0.3c0.6,0,1.1,0,1.7,0c1.9,0,3.4-1.3,3.7-3.2c0-0.2,0-0.4,0-0.6c0-1.2,0-2.3,0-3.5c0-0.1,0-0.2,0-0.2
		c0.1-0.2,0.3-0.3,0.5-0.1c0.5,0.4,0.9,1,1,1.6c0,0.2,0,0.5,0,0.7C15.8,8,15.8,8.7,15.8,9.4z"/>
</g>
</svg>
