<svg width="25" height="24" viewBox="0 0 25 24" fill="none" xmlns="http://www.w3.org/2000/svg">
<g id="application" clip-path="url(#clip0_1580_2051)">
<g id="Layer 2">
<path id="Vector" d="M21.5 10.75H15.5C15.036 10.7494 14.5913 10.5649 14.2632 10.2368C13.9351 9.90875 13.7506 9.46396 13.75 9V3C13.7506 2.53604 13.9351 2.09125 14.2632 1.76319C14.5913 1.43512 15.036 1.25056 15.5 1.25H21.5C21.964 1.25056 22.4087 1.43512 22.7368 1.76319C23.0649 2.09125 23.2494 2.53604 23.25 3V9C23.2494 9.46396 23.0649 9.90875 22.7368 10.2368C22.4087 10.5649 21.964 10.7494 21.5 10.75ZM15.5 2.75C15.4337 2.75013 15.3702 2.77651 15.3234 2.82336C15.2765 2.87022 15.2501 2.93373 15.25 3V9C15.2501 9.06627 15.2765 9.12978 15.3234 9.17664C15.3702 9.22349 15.4337 9.24987 15.5 9.25H21.5C21.5663 9.24987 21.6298 9.22349 21.6766 9.17664C21.7235 9.12978 21.7499 9.06627 21.75 9V3C21.7499 2.93373 21.7235 2.87022 21.6766 2.82336C21.6298 2.77651 21.5663 2.75013 21.5 2.75H15.5Z" fill="#FCFCFC"/>
<path id="Vector_2" d="M18.4999 23.2451C18.2701 23.2456 18.0425 23.2006 17.8301 23.1128C17.6178 23.025 17.4249 22.8961 17.2626 22.7334L13.7665 19.2373C13.4389 18.9089 13.2549 18.4639 13.2549 18C13.2549 17.5361 13.4389 17.0911 13.7665 16.7627L17.2626 13.2666C17.5909 12.9388 18.0359 12.7546 18.4999 12.7546C18.9639 12.7546 19.4089 12.9388 19.7372 13.2666L23.2333 16.7627C23.5611 17.091 23.7452 17.536 23.7452 18C23.7452 18.464 23.5611 18.909 23.2333 19.2373L19.7372 22.7334C19.5749 22.8961 19.382 23.025 19.1696 23.1128C18.9573 23.2006 18.7297 23.2456 18.4999 23.2451ZM18.4999 14.2539C18.467 14.2538 18.4345 14.2603 18.4042 14.2728C18.3738 14.2854 18.3463 14.3039 18.3231 14.3272L14.827 17.8232C14.8038 17.8465 14.7854 17.874 14.7728 17.9043C14.7603 17.9347 14.7538 17.9672 14.7538 18C14.7538 18.0328 14.7603 18.0653 14.7728 18.0957C14.7854 18.126 14.8038 18.1536 14.827 18.1768L18.3231 21.6729C18.3463 21.6961 18.3739 21.7145 18.4042 21.7271C18.4345 21.7396 18.4671 21.7461 18.4999 21.7461C18.5327 21.7461 18.5652 21.7396 18.5955 21.7271C18.6259 21.7145 18.6534 21.6961 18.6766 21.6729L22.1727 18.1768C22.196 18.1536 22.2144 18.126 22.2269 18.0957C22.2395 18.0653 22.246 18.0328 22.246 18C22.246 17.9672 22.2395 17.9347 22.2269 17.9043C22.2144 17.874 22.196 17.8465 22.1727 17.8232L18.6766 14.3272C18.6535 14.3039 18.6259 14.2854 18.5956 14.2728C18.5653 14.2603 18.5327 14.2538 18.4999 14.2539Z" fill="#FCFCFC"/>
<path id="Vector_3" d="M9.5 10.75H3.5C3.03604 10.7494 2.59125 10.5649 2.26319 10.2368C1.93512 9.90875 1.75056 9.46396 1.75 9V3C1.75056 2.53604 1.93512 2.09125 2.26319 1.76319C2.59125 1.43512 3.03604 1.25056 3.5 1.25H9.5C9.96396 1.25056 10.4087 1.43512 10.7368 1.76319C11.0649 2.09125 11.2494 2.53604 11.25 3V9C11.2494 9.46396 11.0649 9.90875 10.7368 10.2368C10.4087 10.5649 9.96396 10.7494 9.5 10.75ZM3.5 2.75C3.43373 2.75013 3.37022 2.77651 3.32336 2.82336C3.27651 2.87022 3.25013 2.93373 3.25 3V9C3.25013 9.06627 3.27651 9.12978 3.32336 9.17664C3.37022 9.22349 3.43373 9.24987 3.5 9.25H9.5C9.56627 9.24987 9.62978 9.22349 9.67664 9.17664C9.72349 9.12978 9.74987 9.06627 9.75 9V3C9.74987 2.93373 9.72349 2.87022 9.67664 2.82336C9.62978 2.77651 9.56627 2.75013 9.5 2.75H3.5Z" fill="#FCFCFC"/>
<path id="Vector_4" d="M9.5 22.75H3.5C3.03604 22.7494 2.59125 22.5649 2.26319 22.2368C1.93512 21.9087 1.75056 21.464 1.75 21V15C1.75056 14.536 1.93512 14.0913 2.26319 13.7632C2.59125 13.4351 3.03604 13.2506 3.5 13.25H9.5C9.96396 13.2506 10.4087 13.4351 10.7368 13.7632C11.0649 14.0913 11.2494 14.536 11.25 15V21C11.2494 21.464 11.0649 21.9087 10.7368 22.2368C10.4087 22.5649 9.96396 22.7494 9.5 22.75ZM3.5 14.75C3.43373 14.7501 3.37022 14.7765 3.32336 14.8234C3.27651 14.8702 3.25013 14.9337 3.25 15V21C3.25013 21.0663 3.27651 21.1298 3.32336 21.1766C3.37022 21.2235 3.43373 21.2499 3.5 21.25H9.5C9.56627 21.2499 9.62978 21.2235 9.67664 21.1766C9.72349 21.1298 9.74987 21.0663 9.75 21V15C9.74987 14.9337 9.72349 14.8702 9.67664 14.8234C9.62978 14.7765 9.56627 14.7501 9.5 14.75H3.5Z" fill="#FCFCFC"/>
</g>
</g>
<defs>
<clipPath id="clip0_1580_2051">
<rect width="24" height="24" fill="white" transform="translate(0.5)"/>
</clipPath>
</defs>
</svg>
