<svg width="25" height="24" viewBox="0 0 25 24" fill="none" xmlns="http://www.w3.org/2000/svg">
<g id="application 1">
<g id="Layer 2">
<path id="Vector" d="M21.5 1.25H15.5C14.5335 1.25 13.75 2.0335 13.75 3V9C13.75 9.9665 14.5335 10.75 15.5 10.75H21.5C22.4665 10.75 23.25 9.9665 23.25 9V3C23.25 2.0335 22.4665 1.25 21.5 1.25Z" fill="#A858F4"/>
<path id="Vector_2" d="M23.2333 16.7627L19.7372 13.2666C19.4086 12.9392 18.9637 12.7554 18.4999 12.7554C18.0361 12.7554 17.5911 12.9392 17.2626 13.2666L13.7665 16.7627C13.4389 17.0911 13.2549 17.5361 13.2549 18C13.2549 18.4639 13.4389 18.9089 13.7665 19.2373L17.2626 22.7334C17.591 23.0611 18.036 23.2451 18.4999 23.2451C18.9638 23.2451 19.4088 23.0611 19.7372 22.7334L23.2333 19.2373C23.5611 18.909 23.7452 18.464 23.7452 18C23.7452 17.536 23.5611 17.091 23.2333 16.7627Z" fill="#A858F4"/>
<path id="Vector_3" d="M9.5 1.25H3.5C2.5335 1.25 1.75 2.0335 1.75 3V9C1.75 9.9665 2.5335 10.75 3.5 10.75H9.5C10.4665 10.75 11.25 9.9665 11.25 9V3C11.25 2.0335 10.4665 1.25 9.5 1.25Z" fill="#A858F4"/>
<path id="Vector_4" d="M9.5 13.25H3.5C2.5335 13.25 1.75 14.0335 1.75 15V21C1.75 21.9665 2.5335 22.75 3.5 22.75H9.5C10.4665 22.75 11.25 21.9665 11.25 21V15C11.25 14.0335 10.4665 13.25 9.5 13.25Z" fill="#A858F4"/>
</g>
</g>
</svg>
