<svg width="24" height="24" viewBox="0 0 24 24" fill="none" xmlns="http://www.w3.org/2000/svg">
<g clip-path="url(#clip0_809_25514)">
<path d="M14.3974 1.64756L9.51931 6.52566C9.50989 6.53503 9.50403 6.54642 9.49465 6.55589C10.6964 6.38086 11.9309 6.50086 13.0753 6.94711L16.3861 3.63633C17.4829 2.5395 19.2668 2.5395 20.3636 3.63633C21.4604 4.73306 21.4604 6.51698 20.3636 7.61372C20.1766 7.80084 15.2035 12.774 15.4855 12.4918C14.38 13.5974 12.5663 13.5501 11.508 12.4918C10.9599 11.9437 10.0675 11.9437 9.51931 12.4918L8.66553 13.3456C8.90234 13.748 9.17384 14.1352 9.51931 14.4806C11.6024 16.5638 15.1881 16.7302 17.444 14.5053C17.4535 14.4959 17.4648 14.49 17.4743 14.4806L22.3524 9.60253C24.549 7.40578 24.549 3.84431 22.3524 1.64756C20.1556 -0.549187 16.5942 -0.549187 14.3974 1.64756Z" fill="#292929"/>
<path d="M10.9352 17.0421L7.61373 20.3636C6.517 21.4604 4.73307 21.4604 3.63634 20.3636C2.53951 19.2668 2.53951 17.4829 3.63634 16.3861C3.82337 16.1991 8.80712 11.2153 8.52507 11.4974C9.63057 10.3919 11.4443 10.4391 12.5026 11.4974C13.0507 12.0456 13.9431 12.0456 14.4913 11.4974L15.3451 10.6436C15.1082 10.2412 14.8367 9.85402 14.4913 9.50864C12.4121 7.42941 8.82911 7.2525 6.56654 9.48394C6.55712 9.49331 6.54578 9.49922 6.53631 9.50864L1.64753 14.3974C-0.549129 16.5941 -0.549223 20.1556 1.64753 22.3524C3.84428 24.549 7.40584 24.549 9.6025 22.3524L14.4912 17.4636C14.5007 17.4542 14.5065 17.4429 14.5159 17.4333C13.3142 17.6084 12.0797 17.4884 10.9352 17.0421Z" fill="#292929"/>
</g>
<defs>
<clipPath id="clip0_809_25514">
<rect width="24" height="24" fill="white"/>
</clipPath>
</defs>
</svg>
