<svg width="25" height="24" viewBox="0 0 25 24" fill="none" xmlns="http://www.w3.org/2000/svg">
<g id="bell 1">
<g id="Group">
<path id="Vector" d="M21.879 16.913C20.367 15.635 19.5 13.767 19.5 11.788V9C19.5 5.481 16.886 2.568 13.5 2.08V1C13.5 0.447 13.052 0 12.5 0C11.948 0 11.5 0.447 11.5 1V2.08C8.113 2.568 5.5 5.481 5.5 9V11.788C5.5 13.767 4.633 15.635 3.112 16.921C2.723 17.254 2.5 17.738 2.5 18.25C2.5 19.215 3.285 20 4.25 20H20.75C21.715 20 22.5 19.215 22.5 18.25C22.5 17.738 22.277 17.254 21.879 16.913Z" fill="#A858F4"/>
<path id="Vector_2" d="M12.4982 24C14.3092 24 15.8242 22.709 16.1722 21H8.82422C9.17222 22.709 10.6872 24 12.4982 24Z" fill="#A858F4"/>
</g>
</g>
</svg>
