<svg width="25" height="24" viewBox="0 0 25 24" fill="none" xmlns="http://www.w3.org/2000/svg">
<g id="notification (1) 1" clip-path="url(#clip0_1580_4695)">
<g id="Group">
<g id="Group_2">
<path id="Vector" d="M20.2437 15.1781V10.6181C20.2437 7.23097 18.076 4.27744 15.0915 3.17422C15.1263 3.00001 15.1456 2.82198 15.1456 2.64388C15.1457 1.18454 13.9612 0 12.5018 0C11.0425 0 9.85793 1.18454 9.85793 2.64388C9.85793 2.8181 9.87725 2.99225 9.90822 3.15871C8.88244 3.52259 7.93405 4.09935 7.12503 4.88128C5.59988 6.35226 4.75989 8.33031 4.75989 10.4516V15.1781C4.75989 15.3445 4.6244 15.4839 4.45406 15.4839C3.02568 15.4839 1.8063 16.56 1.67468 17.9304C1.60112 18.693 1.85278 19.4516 2.3676 20.0168C2.87855 20.5781 3.61019 20.9033 4.37274 20.9033H9.04115C9.23469 22.6414 10.7134 24.0001 12.5018 24.0001C14.2902 24.0001 15.7689 22.6414 15.9625 20.9033H20.6309C21.3935 20.9033 22.1251 20.5781 22.636 20.0168C23.147 19.4516 23.3986 18.693 23.3289 17.9304C23.1973 16.56 21.9741 15.4839 20.5496 15.4839C20.3792 15.4838 20.2437 15.3483 20.2437 15.1781ZM12.5018 1.54836C13.1056 1.54836 13.5973 2.03998 13.5973 2.64382C13.5973 2.69411 13.5895 2.74059 13.5818 2.79088C13.3185 2.75216 13.0514 2.72508 12.7843 2.71732C12.3236 2.7018 11.8708 2.73283 11.4217 2.79476C11.414 2.74447 11.4062 2.69799 11.4062 2.6477C11.4063 2.03998 11.898 1.54836 12.5018 1.54836ZM12.5018 22.4516C11.5689 22.4516 10.787 21.7857 10.605 20.9032H14.3985C14.2167 21.7858 13.4348 22.4516 12.5018 22.4516ZM21.7883 18.0774C21.8192 18.4103 21.7147 18.7316 21.4941 18.9755C21.2657 19.2194 20.9637 19.3548 20.6309 19.3548H4.3728C4.03988 19.3548 3.73799 19.2193 3.51342 18.9755C3.28891 18.7316 3.18438 18.4103 3.21535 18.0774C3.26952 17.4929 3.81537 17.0323 4.45406 17.0323C5.47602 17.0323 6.30825 16.2 6.30825 15.1781V10.4516C6.30825 8.75612 6.98178 7.17292 8.20116 5.99614C9.36631 4.86971 10.8838 4.25805 12.5018 4.25805C12.5793 4.25805 12.6528 4.25805 12.7302 4.26193C16.0166 4.37803 18.6954 7.23097 18.6954 10.6181V15.1781C18.6954 16.2 19.5276 17.0323 20.5496 17.0323C21.1882 17.0323 21.7302 17.4929 21.7883 18.0774Z" fill="#FCFCFC"/>
</g>
</g>
</g>
<defs>
<clipPath id="clip0_1580_4695">
<rect width="24" height="24" fill="white" transform="translate(0.5)"/>
</clipPath>
</defs>
</svg>
