<svg width="24" height="24" viewBox="0 0 24 24" fill="none" xmlns="http://www.w3.org/2000/svg">
<g id="reply 1" clip-path="url(#clip0_1757_2146)">
<path id="Vector" d="M10 7.002V2.75C10 2.449 9.819 2.177 9.542 2.059C9.266 1.942 8.943 2.001 8.728 2.212L0.228 10.462C0.082 10.603 0 10.797 0 11C0 11.203 0.082 11.397 0.228 11.538L8.728 19.788C8.945 19.998 9.267 20.057 9.542 19.941C9.819 19.823 10 19.551 10 19.25V15H11.418C16.054 15 20.328 17.52 22.571 21.572L22.592 21.61C22.726 21.854 22.98 22 23.25 22C23.312 22 23.374 21.993 23.436 21.977C23.768 21.892 24 21.593 24 21.25C24 13.476 17.743 7.136 10 7.002Z" fill="#FAF5FF"/>
</g>
<defs>
<clipPath id="clip0_1757_2146">
<rect width="24" height="24" fill="white"/>
</clipPath>
</defs>
</svg>
