<svg width="24" height="24" viewBox="0 0 24 24" fill="none" xmlns="http://www.w3.org/2000/svg">
<g clip-path="url(#clip0_1292_57562)">
<path d="M6.62665 5.46171C6.28052 5.1153 5.71896 5.1153 5.37284 5.46171C4.08771 6.74683 3.45607 8.53708 3.63963 10.3737C3.68543 10.8313 4.07088 11.1723 4.52102 11.1723C4.5506 11.1723 4.58041 11.1708 4.60999 11.1679C5.0974 11.1191 5.45295 10.6843 5.4042 10.1973C5.27356 8.89202 5.71929 7.62288 6.62665 6.71547C6.97306 6.3694 6.97306 5.80779 6.62665 5.46171Z" fill="#989898"/>
<path d="M10.1379 0C4.54786 0 0 4.54786 0 10.1379C0 15.728 4.54786 20.2759 10.1379 20.2759C15.728 20.2759 20.2759 15.728 20.2759 10.1379C20.2759 4.54786 15.728 0 10.1379 0ZM10.1379 18.5025C5.52562 18.5025 1.77342 14.7502 1.77342 10.1379C1.77342 5.52562 5.52562 1.77342 10.1379 1.77342C14.75 1.77342 18.5025 5.52562 18.5025 10.1379C18.5025 14.7502 14.7502 18.5025 10.1379 18.5025Z" fill="#989898"/>
<path d="M23.7402 22.4864L17.2968 16.043C16.9504 15.6966 16.3894 15.6966 16.043 16.043C15.6966 16.3891 15.6966 16.9507 16.043 17.2968L22.4864 23.7402C22.6596 23.9134 22.8863 23.9999 23.1133 23.9999C23.3403 23.9999 23.567 23.9134 23.7402 23.7402C24.0866 23.394 24.0866 22.8325 23.7402 22.4864Z" fill="#989898"/>
</g>
<defs>
<clipPath id="clip0_1292_57562">
<rect width="24" height="24" fill="white"/>
</clipPath>
</defs>
</svg>
