<svg width="24" height="24" viewBox="0 0 24 24" fill="none" xmlns="http://www.w3.org/2000/svg">
<g id="video 1">
<g id="Group">
<path id="Vector" fill-rule="evenodd" clip-rule="evenodd" d="M18.6353 22.6228C19.1006 22.9719 19.7647 22.6398 19.7647 22.0581V18.5287H21.1765C22.7341 18.5287 24 17.2641 24 15.7056V4.05774C24 2.49733 22.7378 1.23462 21.1792 1.23462H2.82079C1.26421 1.23462 0 2.49937 0 4.05774V15.7056C0 17.2663 1.26458 18.5287 2.82542 18.5287H13.1765L18.6353 22.6228ZM13.8353 17.2582C13.7131 17.1665 13.5645 17.117 13.4117 17.117H2.82542C2.04371 17.117 1.41179 16.4861 1.41179 15.7056V4.05774C1.41179 3.27891 2.04408 2.64637 2.82079 2.64637H21.1793C21.958 2.64637 22.5882 3.27691 22.5882 4.05774V15.7056C22.5882 16.4841 21.9548 17.117 21.1765 17.117H19.0588C18.669 17.117 18.353 17.433 18.353 17.8228V20.6464L13.8353 17.2582ZM12.0013 6.88166H9.17513C8.00638 6.88166 7.05883 7.82849 7.05883 8.99687V11.1194C7.05883 12.2878 8.00642 13.2346 9.17513 13.2346H12.0013C12.7736 13.2346 13.4572 12.8189 13.827 12.1903L16.0324 12.8519C16.4853 12.9878 16.9411 12.6487 16.9411 12.1758V7.94049C16.9411 7.46766 16.4853 7.12849 16.0324 7.26437L13.827 7.92599C13.4573 7.29733 12.7736 6.88166 12.0013 6.88166ZM15.5294 11.227L13.5998 10.6482C13.187 10.5243 12.7606 10.7961 12.6985 11.2225C12.6486 11.5647 12.3524 11.8228 12.0013 11.8228H9.17513C8.78583 11.8228 8.47058 11.5078 8.47058 11.1194V8.99687C8.47058 8.60845 8.78583 8.29345 9.17513 8.29345H12.0013C12.3523 8.29345 12.6486 8.55158 12.6985 8.89379C12.7606 9.32024 13.187 9.59195 13.5998 9.46812L15.5294 8.88924V11.227H15.5294Z" fill="white"/>
</g>
</g>
</svg>
