<svg width="24" height="24" viewBox="0 0 24 24" fill="none" xmlns="http://www.w3.org/2000/svg">
<g id="video (3) 1">
<g id="Group">
<path id="Vector" d="M5.25 2.25C5.60014 2.25 5.9037 2.49228 5.98133 2.8337L6.25736 4.04756C6.44929 4.89161 7.10839 5.55071 7.95244 5.74264L9.16631 6.01868C9.50771 6.0963 9.75 6.39986 9.75 6.75C9.75 7.10014 9.50771 7.4037 9.16631 7.48132L7.95244 7.75736C7.10839 7.94929 6.44929 8.60839 6.25736 9.45244L5.98133 10.6663C5.9037 11.0077 5.60014 11.25 5.25 11.25C4.89986 11.25 4.5963 11.0077 4.51867 10.6663L4.24264 9.45244C4.05071 8.60839 3.39161 7.94929 2.54755 7.75736L1.3337 7.48132C0.992276 7.4037 0.75 7.10014 0.75 6.75C0.75 6.39986 0.992276 6.0963 1.3337 6.01868L2.54755 5.74264C3.39161 5.55071 4.05071 4.89161 4.24264 4.04756L4.51867 2.8337C4.5963 2.49228 4.89986 2.25 5.25 2.25Z" fill="#FCFCFC"/>
<path id="Vector_2" d="M1.08426 8.57831L2.29811 8.85435C2.72013 8.95031 3.04969 9.27986 3.14566 9.70189L3.42167 10.9157C3.61577 11.7693 4.37464 12.375 5.25 12.375C6.12536 12.375 6.88425 11.7693 7.07831 10.9157L7.35435 9.70189C7.45031 9.27986 7.77986 8.95031 8.20189 8.85435L9.41573 8.57831C10.2693 8.38425 10.875 7.62536 10.875 6.75C10.875 6.48521 10.8196 6.23107 10.7186 6H15.75C17.3775 6 18.7022 7.29589 18.7487 8.9121L19.9938 8.2896C21.4898 7.54159 23.25 8.62942 23.25 10.302V17.448C23.25 19.1206 21.4898 20.2084 19.9938 19.4604L18.7487 18.8379C18.7022 20.4541 17.3775 21.75 15.75 21.75H3.75C2.09314 21.75 0.75 20.4069 0.75 18.75V9C0.75 8.8251 0.764966 8.65372 0.793684 8.48704C0.886717 8.5248 0.983771 8.55547 1.08426 8.57831Z" fill="#FCFCFC"/>
</g>
</g>
</svg>
