<svg width="36" height="20" viewBox="0 0 36 20" fill="none" xmlns="http://www.w3.org/2000/svg">
<g id="Log">
<g id="Group 1">
<g id="M">
<path id="Vector" d="M20.1652 10.8837C20.1652 10.8837 17.9857 10.95 17.4661 14.6875C16.9445 18.425 14.8206 18.6374 14.8206 18.6374H10.1423C10.1423 18.6374 12.6689 18.8245 13.2836 14.67C13.6704 11.3417 15.2073 11.0104 15.9292 10.8662C16.7184 10.8662 20.1652 10.8837 20.1652 10.8837Z" fill="#FCFCFC"/>
<path id="Vector_2" d="M3.54712 1.54972C3.54712 1.54972 5.7266 1.69392 6.24618 9.82369C6.76775 17.9535 10.153 18.6355 10.153 18.6355H14.8312C14.8312 18.6355 11.0434 18.8187 10.4286 9.78471C10.0419 2.54742 8.50499 1.82642 7.78312 1.51074C6.99383 1.51074 3.54712 1.54972 3.54712 1.54972Z" fill="#FCFCFC"/>
<path id="Vector_3" d="M32.5494 1.48331C32.5494 1.48331 30.3699 1.62751 29.8503 9.75728C29.3288 17.8871 25.8682 18.6353 25.8682 18.6353H21.1899C21.1899 18.6353 25.0511 18.7523 25.6659 9.71831C26.0526 2.48102 27.5896 1.76002 28.3114 1.44434C29.1007 1.44434 32.5474 1.48331 32.5474 1.48331H32.5494Z" fill="#FCFCFC"/>
<path id="Vector_4" d="M15.9001 10.8837C15.9001 10.8837 18.0796 10.95 18.5992 14.6875C19.1208 18.425 21.2447 18.6374 21.2447 18.6374H25.923C25.923 18.6374 23.3964 18.8245 22.7817 14.67C22.3949 11.3417 20.858 11.0104 20.1361 10.8662C19.3469 10.8662 15.9001 10.8837 15.9001 10.8837Z" fill="#FCFCFC"/>
</g>
<g id="W">
<path id="Vector_5" d="M15.9325 9.1995C15.9325 9.1995 18.112 9.13325 18.6316 5.39574C19.1531 1.65822 21.2771 1.44582 21.2771 1.44582L25.9553 1.44582C25.9553 1.44582 23.4288 1.25875 22.814 5.41327C22.4273 8.74157 20.8904 9.07284 20.1685 9.21704C19.3792 9.21704 15.9325 9.1995 15.9325 9.1995Z" fill="#FCFCFC"/>
<path id="Vector_6" d="M32.5493 18.5335C32.5493 18.5335 30.3698 18.3893 29.8503 10.2596C29.3287 2.12979 25.9435 1.44777 25.9435 1.44777L21.2652 1.44777C21.2652 1.44777 25.053 1.26459 25.6678 10.2985C26.0545 17.5358 27.5914 18.2568 28.3133 18.5725C29.1026 18.5725 32.5493 18.5335 32.5493 18.5335Z" fill="#FCFCFC"/>
<path id="Vector_7" d="M3.54825 18.5997C3.54825 18.5997 5.72772 18.4555 6.24731 10.3257C6.76888 2.19595 10.2295 1.44767 10.2295 1.44767L14.9077 1.44767C14.9077 1.44767 11.0465 1.33075 10.4318 10.3647C10.045 17.602 8.5081 18.323 7.78623 18.6387C6.99694 18.6387 3.55023 18.5997 3.55023 18.5997L3.54825 18.5997Z" fill="#FCFCFC"/>
<path id="Vector_8" d="M20.1973 9.1995C20.1973 9.1995 18.0178 9.13325 17.4982 5.39574C16.9766 1.65822 14.8527 1.44582 14.8527 1.44582L10.1744 1.44582C10.1744 1.44582 12.701 1.25875 13.3157 5.41327C13.7025 8.74157 15.2394 9.07284 15.9613 9.21704C16.7506 9.21704 20.1973 9.1995 20.1973 9.1995Z" fill="#FCFCFC"/>
</g>
</g>
</g>
</svg>
