<svg width="18" height="18" viewBox="0 0 18 18" fill="none" xmlns="http://www.w3.org/2000/svg">
<path d="M8.75 17.5H2.38636C1.75346 17.5 1.14648 17.2486 0.69895 16.8011C0.25142 16.3535 0 15.7465 0 15.1136V2.38636C0 1.75346 0.25142 1.14648 0.69895 0.69895C1.14648 0.25142 1.75346 0 2.38636 0H8.75C9.3829 0 9.98988 0.25142 10.4374 0.69895C10.8849 1.14648 11.1364 1.75346 11.1364 2.38636V3.97727C11.1364 4.18824 11.0526 4.39057 10.9034 4.53974C10.7542 4.68892 10.5519 4.77273 10.3409 4.77273C10.1299 4.77273 9.92761 4.68892 9.77844 4.53974C9.62926 4.39057 9.54545 4.18824 9.54545 3.97727V2.38636C9.54545 2.1754 9.46165 1.97307 9.31247 1.82389C9.16329 1.67472 8.96097 1.59091 8.75 1.59091H2.38636C2.1754 1.59091 1.97307 1.67472 1.82389 1.82389C1.67472 1.97307 1.59091 2.1754 1.59091 2.38636V15.1136C1.59091 15.3246 1.67472 15.5269 1.82389 15.6761C1.97307 15.8253 2.1754 15.9091 2.38636 15.9091H8.75C8.96097 15.9091 9.16329 15.8253 9.31247 15.6761C9.46165 15.5269 9.54545 15.3246 9.54545 15.1136V13.5227C9.54545 13.3118 9.62926 13.1094 9.77844 12.9603C9.92761 12.8111 10.1299 12.7273 10.3409 12.7273C10.5519 12.7273 10.7542 12.8111 10.9034 12.9603C11.0526 13.1094 11.1364 13.3118 11.1364 13.5227V15.1136C11.1364 15.7465 10.8849 16.3535 10.4374 16.8011C9.98988 17.2486 9.3829 17.5 8.75 17.5ZM13.5227 12.7273C13.418 12.7279 13.3143 12.7078 13.2173 12.6682C13.1204 12.6286 13.0323 12.5703 12.958 12.4966C12.8834 12.4226 12.8242 12.3347 12.7838 12.2377C12.7435 12.1408 12.7227 12.0368 12.7227 11.9318C12.7227 11.8268 12.7435 11.7228 12.7838 11.6259C12.8242 11.529 12.8834 11.441 12.958 11.367L14.7875 9.54545H3.97727C3.7663 9.54545 3.56398 9.46165 3.4148 9.31247C3.26562 9.16329 3.18182 8.96097 3.18182 8.75C3.18182 8.53903 3.26562 8.33671 3.4148 8.18753C3.56398 8.03835 3.7663 7.95455 3.97727 7.95455H14.7875L12.958 6.13295C12.8082 5.98317 12.724 5.78001 12.724 5.56818C12.724 5.35635 12.8082 5.1532 12.958 5.00341C13.1077 4.85362 13.3109 4.76947 13.5227 4.76947C13.7346 4.76947 13.9377 4.85362 14.0875 5.00341L17.2693 8.18523C17.3439 8.25918 17.4031 8.34715 17.4434 8.44409C17.4838 8.54102 17.5046 8.64499 17.5046 8.75C17.5046 8.85501 17.4838 8.95898 17.4434 9.05591C17.4031 9.15285 17.3439 9.24082 17.2693 9.31477L14.0875 12.4966C14.0132 12.5703 13.925 12.6286 13.8281 12.6682C13.7312 12.7078 13.6274 12.7279 13.5227 12.7273Z" fill="#E74C4C"/>
</svg>
