<svg width="25" height="24" viewBox="0 0 25 24" fill="none" xmlns="http://www.w3.org/2000/svg">
<g clip-path="url(#clip0_1103_27392)">
<path d="M8.93745 14.25V12.375C8.93745 12 8.63745 11.7 8.26245 11.7H6.94995C6.16245 11.7 5.52495 11.0625 5.52495 10.275C5.52495 9.89998 5.67495 9.52498 5.93745 9.26248C6.19995 8.99998 6.57495 8.84998 6.94995 8.84998H11.7125V10.2C11.7125 10.725 12.35 10.9875 12.725 10.6125L15.5375 7.68748C15.7625 7.46248 15.7625 7.08748 15.5375 6.86248L12.7625 3.93748C12.3875 3.56248 11.75 3.82498 11.75 4.34998L11.7125 5.69998H7.02495C4.51245 5.69998 2.44995 7.76248 2.44995 10.3125C2.44995 12.8625 4.51245 14.925 7.02495 14.925H8.26245C8.63745 14.8875 8.93745 14.625 8.93745 14.25Z" fill="#FCFCFC"/>
<path d="M17.45 9.11255H16.0625C15.6875 9.11255 15.35 9.41255 15.35 9.78755V11.6625C15.35 12.0375 15.65 12.3375 16.0625 12.3375H17.5625C18.4625 12.3375 19.2125 12.975 19.2125 13.7625C19.2125 14.1 19.0625 14.4375 18.8 14.7C18.5 15 18.0125 15.1875 17.525 15.1875H12.0875V13.8375C12.0875 13.3125 11.4125 13.05 11.0375 13.3875L7.84995 16.3125C7.58745 16.5375 7.58745 16.95 7.84995 17.175L11 20.1C11.375 20.4375 12.0125 20.2125 12.05 19.6875L12.0875 18.3375H17.4125C20.225 18.3375 22.55 16.275 22.55 13.725C22.55 11.175 20.2625 9.11255 17.45 9.11255Z" fill="#FCFCFC"/>
</g>
<defs>
<clipPath id="clip0_1103_27392">
<rect width="24" height="24" fill="white" transform="translate(0.5)"/>
</clipPath>
</defs>
</svg>
