<svg width="117" height="130" viewBox="0 0 117 130" fill="none" xmlns="http://www.w3.org/2000/svg">
<path d="M25.4654 49.481C25.618 52.3192 30.0127 52.2277 30.3484 49.3894L32.9425 27.4464C33.1256 25.3406 29.9516 24.425 27.7238 24.425C25.679 24.425 22.5356 25.188 22.8102 27.4159L25.4349 49.3894C25.4349 49.3894 25.4349 49.4505 25.4654 49.481ZM49.4226 64.9235C43.2273 71.1188 34.8652 74.2928 26.1063 73.8045C24.8855 80.7323 22.8713 86.5003 20.4603 91.6275H108.538C104.601 83.1738 101.671 73.072 101.671 58.6366C101.671 28.423 82.4135 14.659 64.4989 14.6285C58.2121 14.6285 52.0778 16.307 46.7065 19.481C61.0808 30.7729 62.3016 52.0446 49.4226 64.9235ZM77.4389 13.896V6.08322C77.4389 3.18393 75.089 0.833984 72.1897 0.833984H56.8387C53.9394 0.833984 51.5895 3.18393 51.5895 6.08322V13.9266C59.9516 10.9052 69.1378 10.9052 77.4389 13.896ZM116.015 105.117C113.97 101.668 111.925 98.2806 110.003 94.5268H19.0564C17.1337 98.2501 15.089 101.699 13.0442 105.117C11.3352 107.986 13.3799 111.617 16.737 111.617C48.5986 111.617 80.4603 111.617 112.322 111.617C115.679 111.617 117.724 107.986 116.015 105.117ZM27.9069 70.9052C35.2619 70.9052 42.1592 68.0364 47.3779 62.8482C58.1205 52.1056 58.1205 34.6488 47.3779 23.9062C36.7268 13.2551 19.3006 13.0415 8.43587 23.9062C-2.30675 34.6794 -2.30675 52.0751 8.43587 62.8482C12.9527 67.365 18.7207 70.1117 24.9771 70.7526C26.0452 70.7831 26.5946 70.9052 27.9069 70.9052ZM19.911 27.7211C18.9344 19.481 36.2385 19.3284 35.8723 27.6295C35.8723 27.66 35.8723 27.6905 35.8723 27.7211L33.2477 49.6946C32.8814 52.8381 30.2263 54.4555 27.7543 54.4555C24.855 54.4555 22.7797 52.5634 22.5356 49.6641L19.911 27.7211ZM22.5661 61.6275C22.5661 58.6977 24.9466 56.2867 27.9069 56.2867C30.8367 56.2867 33.2477 58.6671 33.2477 61.6275C33.2477 64.5573 30.8672 66.9683 27.9069 66.9683C24.9466 66.9683 22.5661 64.5573 22.5661 61.6275ZM64.5295 129.166C73.1052 129.166 80.3077 122.848 81.62 114.547H47.4389C48.7512 122.848 55.9537 129.166 64.5295 129.166ZM30.2874 61.6275C30.2874 60.3152 29.2192 59.2165 27.8764 59.2165C26.5641 59.2165 25.4654 60.2846 25.4654 61.6275C25.4654 62.9398 26.5335 64.0385 27.8764 64.0385C29.2192 64.0385 30.2874 62.9398 30.2874 61.6275Z" fill="#7C7C7C"/>
</svg>
