<svg width="390" height="367" viewBox="0 0 390 367" fill="none" xmlns="http://www.w3.org/2000/svg">
<g clip-path="url(#clip0_494_26722)">
<path d="M57.1851 224.763C57.0236 224.758 56.8636 224.704 56.7339 224.6C55.6486 223.733 54.5862 222.806 53.5776 221.845C53.3043 221.584 53.3173 221.173 53.607 220.927C53.8967 220.679 54.3536 220.693 54.6278 220.953C55.607 221.887 56.6384 222.788 57.6919 223.629C57.9905 223.867 58.0175 224.278 57.7523 224.545C57.6038 224.697 57.3932 224.771 57.1851 224.763Z" fill="#6464D8"/>
<path d="M48.5945 215.807C48.3692 215.799 48.1514 215.697 48.0184 215.516C46.3839 213.284 44.942 210.901 43.7336 208.434C43.5728 208.106 43.7376 207.722 44.1032 207.577C44.4688 207.434 44.8947 207.583 45.0555 207.911C46.2313 210.312 47.634 212.63 49.2244 214.8C49.4439 215.1 49.3517 215.502 49.0188 215.701C48.8874 215.778 48.7389 215.812 48.5945 215.807ZM41.4838 201.304C41.1721 201.293 40.8922 201.101 40.8123 200.815C40.0722 198.196 39.5785 195.52 39.3451 192.861C39.3133 192.503 39.6111 192.191 40.0085 192.162C40.4035 192.13 40.7543 192.401 40.7853 192.759C41.0122 195.345 41.492 197.947 42.2117 200.494C42.3096 200.842 42.0763 201.196 41.6895 201.284C41.6209 201.3 41.5524 201.306 41.4838 201.304ZM40.1228 185.508C40.1081 185.508 40.0926 185.507 40.0779 185.505C39.6813 185.469 39.3916 185.152 39.4308 184.794C39.736 182.049 40.3145 179.383 41.1509 176.869C41.2651 176.525 41.6666 176.327 42.0501 176.433C42.432 176.536 42.6499 176.898 42.5348 177.242C41.7246 179.677 41.164 182.26 40.8686 184.923C40.8302 185.267 40.5006 185.521 40.1228 185.508ZM45.2652 170.392C45.1526 170.388 45.04 170.36 44.9355 170.306C44.5887 170.128 44.4688 169.732 44.6662 169.42C45.0685 168.786 45.4969 168.162 45.94 167.565C47.1142 165.979 48.4982 164.423 50.0518 162.94C50.3252 162.68 50.783 162.667 51.0727 162.914C51.3632 163.159 51.3762 163.571 51.1028 163.832C49.6047 165.261 48.2721 166.759 47.142 168.286C46.7177 168.858 46.3072 169.456 45.9212 170.065C45.7825 170.282 45.5263 170.4 45.2652 170.392ZM57.1559 158.758C56.9479 158.75 56.7447 158.663 56.6084 158.502C56.366 158.217 56.4272 157.81 56.7447 157.592C58.814 156.173 61.1454 154.728 64.083 153.046C64.4183 152.853 64.8663 152.942 65.0801 153.245C65.2947 153.548 65.1952 153.95 64.859 154.142C61.9565 155.805 59.657 157.229 57.621 158.626C57.4823 158.72 57.3175 158.764 57.1559 158.758ZM71.9761 150.053C71.7436 150.045 71.5192 149.936 71.3878 149.745C71.1789 149.44 71.285 149.039 71.6244 148.851C74.0104 147.53 76.5588 146.095 79.0337 144.556C79.3626 144.354 79.8122 144.427 80.0382 144.721C80.265 145.016 80.1826 145.42 79.8546 145.625C77.3527 147.18 74.784 148.626 72.3809 149.957C72.2552 150.027 72.1148 150.058 71.9761 150.053ZM86.3867 140.836C86.1998 140.829 86.0154 140.758 85.8791 140.623C85.6107 140.357 85.6335 139.946 85.9289 139.705C88.2431 137.817 90.137 135.919 91.7184 133.902C91.9485 133.609 92.3982 133.539 92.7254 133.746C93.051 133.953 93.1293 134.358 92.8992 134.652C91.2558 136.747 89.2933 138.715 86.8999 140.668C86.7531 140.787 86.5687 140.842 86.3867 140.836ZM96.3419 127.886C96.2701 127.884 96.1974 127.872 96.1265 127.849C95.7511 127.729 95.5544 127.356 95.6891 127.019C96.5899 124.746 97.2411 122.259 97.6785 119.413C97.7332 119.058 98.0995 118.809 98.4929 118.858C98.8878 118.907 99.1636 119.235 99.1098 119.591C98.6585 122.526 97.9845 125.099 97.0502 127.455C96.9408 127.729 96.6479 127.897 96.3419 127.886ZM99.069 112.217C98.6707 112.203 98.3599 111.901 98.3745 111.543L98.3802 111.418C98.4365 110.083 98.4757 108.743 98.5157 107.401C98.5532 106.13 98.59 104.857 98.6422 103.586C98.6569 103.227 98.9922 102.947 99.3905 102.96C99.7887 102.974 100.1 103.275 100.086 103.634C100.033 104.9 99.9967 106.169 99.96 107.436C99.9209 108.783 99.8809 110.127 99.8246 111.468L99.8189 111.593C99.8033 111.951 99.468 112.231 99.069 112.217ZM99.9935 96.3214C99.9723 96.3207 99.9502 96.3192 99.9282 96.3163C99.5324 96.2701 99.2534 95.9449 99.304 95.5889C99.5732 93.7062 99.9209 91.9989 100.367 90.3702C100.611 89.4806 100.898 88.5829 101.221 87.7028C101.346 87.3622 101.754 87.1758 102.133 87.2896C102.512 87.4019 102.718 87.7696 102.592 88.1102C102.281 88.9594 102.004 89.8241 101.769 90.6821C101.336 92.2624 100.999 93.9213 100.737 95.7555C100.689 96.0917 100.362 96.3346 99.9935 96.3214ZM105.537 81.3236C105.422 81.3199 105.306 81.2906 105.199 81.2341C104.855 81.052 104.741 80.6535 104.943 80.3445C106.452 78.0419 108.242 75.8524 110.264 73.8353C110.531 73.5689 110.987 73.5476 111.284 73.7876C111.581 74.0277 111.604 74.4387 111.337 74.7051C109.381 76.6568 107.648 78.7766 106.189 81.0043C106.047 81.2172 105.794 81.3324 105.537 81.3236ZM117.302 69.5627C117.092 69.5554 116.887 69.4658 116.751 69.3022C116.512 69.0144 116.578 68.6078 116.898 68.3927C119.316 66.7684 121.905 65.3665 124.592 64.2258C124.952 64.0731 125.383 64.2119 125.554 64.5363C125.724 64.8607 125.569 65.2483 125.209 65.401C122.608 66.5049 120.103 67.8613 117.762 69.4335C117.624 69.5268 117.462 69.5686 117.302 69.5627ZM175.673 70.5191C175.569 70.5155 175.463 70.4912 175.365 70.4443C172.594 69.1304 170.001 68.0089 167.441 67.015C167.074 66.8726 166.905 66.4902 167.064 66.1614C167.222 65.8318 167.647 65.6806 168.014 65.8223C170.609 66.8293 173.234 67.9655 176.039 69.2948C176.391 69.4622 176.527 69.8549 176.341 70.1727C176.206 70.4017 175.943 70.5287 175.673 70.5191ZM159.408 64.2941C159.346 64.2919 159.284 64.2823 159.222 64.2655C156.325 63.4603 153.464 62.8525 150.716 62.4598C150.322 62.404 150.053 62.0708 150.116 61.7163C150.178 61.3618 150.547 61.1195 150.943 61.1768C153.758 61.579 156.688 62.2007 159.65 63.025C160.031 63.1307 160.244 63.4948 160.126 63.8375C160.027 64.1238 159.726 64.3051 159.408 64.2941ZM133.213 62.8481C132.895 62.8371 132.612 62.6367 132.537 62.3446C132.447 61.9952 132.69 61.6458 133.078 61.5651C134.159 61.3405 135.257 61.154 136.344 61.0116C138.193 60.7701 140.096 60.6307 141.998 60.5977C142.392 60.6013 142.727 60.8758 142.734 61.2348C142.742 61.5937 142.425 61.8902 142.026 61.8976C140.183 61.9299 138.341 62.0642 136.551 62.2983C135.503 62.4356 134.443 62.6154 133.402 62.8312C133.339 62.8444 133.276 62.8503 133.213 62.8481Z" fill="#6464D8"/>
<path d="M187.133 76.4931C187.012 76.4887 186.89 76.4571 186.78 76.3955C185.563 75.7143 184.334 75.0368 183.092 74.3696C182.75 74.1854 182.638 73.7861 182.843 73.4786C183.048 73.171 183.491 73.0712 183.833 73.254C185.083 73.9256 186.32 74.6067 187.543 75.2923C187.882 75.4817 187.985 75.8824 187.775 76.187C187.633 76.3925 187.384 76.5019 187.133 76.4931Z" fill="#6464D8"/>
<path d="M272.454 84.6598C272.229 84.6106 272.035 84.4653 271.949 84.2561C271.808 83.9199 271.998 83.5456 272.372 83.42C273.705 82.9716 275.235 82.7741 276.918 82.8336C277.315 82.8453 277.627 83.1492 277.612 83.5081C277.597 83.867 277.261 84.146 276.862 84.132C275.371 84.0799 274.031 84.2502 272.879 84.6377C272.737 84.6847 272.59 84.6899 272.454 84.6598Z" fill="#6464D8"/>
<path d="M302.261 287.302C301.93 287.229 301.692 286.952 301.712 286.634C301.735 286.276 302.077 286.002 302.475 286.023C305.371 286.174 308.303 286.073 311.189 285.72C311.585 285.674 311.948 285.921 312.002 286.276C312.055 286.632 311.779 286.96 311.384 287.008C308.406 287.371 305.38 287.477 302.392 287.32C302.347 287.318 302.303 287.311 302.261 287.302ZM319.735 285.161C319.504 285.11 319.305 284.957 319.222 284.74C319.093 284.401 319.294 284.032 319.672 283.915C321.981 283.202 324.222 282.314 326.33 281.274C326.751 281.066 327.168 280.853 327.58 280.633C327.922 280.45 328.365 280.55 328.569 280.86C328.773 281.168 328.66 281.568 328.317 281.75C327.891 281.978 327.461 282.199 327.025 282.413C324.844 283.489 322.528 284.408 320.14 285.144C320.004 285.186 319.864 285.189 319.735 285.161ZM334.893 277.079C334.758 277.049 334.631 276.985 334.531 276.885C334.263 276.619 334.285 276.209 334.58 275.967C336.723 274.217 338.692 272.261 340.432 270.155C340.671 269.866 341.124 269.809 341.444 270.02C341.763 270.235 341.829 270.641 341.592 270.929C339.795 273.102 337.763 275.121 335.55 276.928C335.367 277.081 335.118 277.129 334.893 277.079ZM345.417 264.351C345.37 264.341 345.324 264.325 345.278 264.306C344.918 264.151 344.765 263.763 344.937 263.439C346.201 261.06 347.193 258.58 347.889 256.067C347.985 255.719 348.376 255.508 348.762 255.593L348.765 255.594C349.152 255.68 349.388 256.033 349.291 256.381C348.572 258.979 347.546 261.542 346.241 264C346.091 264.283 345.743 264.423 345.417 264.351ZM349.698 248.972C349.368 248.9 349.132 248.625 349.15 248.308C349.293 245.768 349.187 243.126 348.837 240.453C348.791 240.096 349.073 239.773 349.47 239.731C349.865 239.69 350.225 239.944 350.272 240.3C350.632 243.046 350.739 245.762 350.593 248.374C350.572 248.732 350.233 249.008 349.834 248.99C349.788 248.988 349.742 248.982 349.698 248.972ZM347.717 233.175C347.467 233.12 347.259 232.948 347.19 232.708C346.478 230.263 345.566 227.732 344.477 225.188C344.334 224.853 344.521 224.476 344.893 224.347C345.265 224.219 345.683 224.386 345.826 224.721C346.934 227.31 347.862 229.887 348.587 232.379C348.688 232.727 348.457 233.082 348.071 233.172C347.951 233.2 347.83 233.2 347.717 233.175ZM341.416 218.277C341.215 218.233 341.036 218.112 340.939 217.932C339.769 215.788 338.458 213.585 337.042 211.384L336.76 210.947C336.559 210.637 336.675 210.239 337.019 210.059C337.363 209.877 337.807 209.981 338.007 210.292L338.294 210.734C339.726 212.96 341.053 215.189 342.237 217.36C342.413 217.681 342.265 218.071 341.906 218.229C341.747 218.3 341.574 218.312 341.416 218.277ZM332.528 204.473C332.357 204.436 332.202 204.343 332.098 204.2C330.482 202.002 328.774 199.815 327.024 197.699C326.786 197.41 326.852 197.004 327.172 196.789C327.492 196.575 327.944 196.634 328.183 196.922C329.949 199.057 331.672 201.264 333.302 203.483C333.522 203.783 333.431 204.186 333.098 204.384C332.923 204.488 332.716 204.515 332.528 204.473ZM321.938 191.675C321.793 191.643 321.659 191.571 321.556 191.46C319.672 189.431 317.704 187.427 315.709 185.506C315.437 185.244 315.452 184.832 315.744 184.588C316.036 184.343 316.492 184.358 316.765 184.62C318.778 186.557 320.763 188.579 322.665 190.627C322.92 190.903 322.88 191.312 322.574 191.543C322.391 191.681 322.154 191.722 321.938 191.675ZM309.833 180.016C309.713 179.989 309.599 179.935 309.504 179.852L308.826 179.264C306.941 177.629 304.991 175.939 303.204 174.173C302.936 173.907 302.958 173.496 303.252 173.255C303.547 173.014 304.005 173.033 304.272 173.298C306.027 175.033 307.96 176.708 309.828 178.329L310.507 178.918C310.794 179.167 310.801 179.578 310.524 179.837C310.34 180.009 310.074 180.069 309.833 180.016ZM298.333 167.949C298.142 167.907 297.97 167.795 297.87 167.628C297.428 166.894 297.032 166.147 296.695 165.406C295.922 163.714 295.358 161.855 295.017 159.88C294.956 159.526 295.225 159.193 295.619 159.138C296.013 159.084 296.382 159.325 296.444 159.68C296.767 161.554 297.3 163.314 298.03 164.912C298.349 165.61 298.722 166.315 299.14 167.008C299.33 167.323 299.199 167.718 298.848 167.889C298.684 167.969 298.501 167.986 298.333 167.949ZM295.26 152.45C294.927 152.376 294.689 152.097 294.712 151.777C294.801 150.53 294.942 149.227 295.145 147.793C295.323 146.528 295.538 145.22 295.8 143.794C295.865 143.44 296.237 143.201 296.63 143.259C297.033 143.32 297.29 143.652 297.224 144.006C296.965 145.416 296.754 146.708 296.577 147.956C296.378 149.363 296.24 150.64 296.153 151.86C296.127 152.219 295.784 152.49 295.386 152.467C295.344 152.465 295.301 152.459 295.26 152.45ZM297.974 136.687C297.6 136.605 297.362 136.271 297.438 135.929L297.622 135.105C298.133 132.813 298.661 130.443 299.123 128.107C299.193 127.754 299.567 127.519 299.961 127.582C300.351 127.641 300.615 127.982 300.545 128.336C300.08 130.685 299.551 133.062 299.038 135.361L298.855 136.184C298.777 136.536 298.396 136.764 298.005 136.694C297.995 136.691 297.984 136.689 297.974 136.687ZM300.915 120.953C300.572 120.877 300.334 120.585 300.369 120.259C300.675 117.477 300.786 114.824 300.701 112.373C300.688 112.014 301.001 111.714 301.4 111.702C301.797 111.692 302.132 111.973 302.144 112.332C302.232 114.839 302.118 117.55 301.807 120.386C301.768 120.743 301.414 121.004 301.017 120.969C300.982 120.966 300.948 120.96 300.915 120.953ZM300.201 105.07C299.943 105.013 299.728 104.829 299.668 104.578C299.23 102.784 298.644 101.048 297.928 99.4227C297.601 98.6791 297.229 97.9356 296.825 97.2126C296.645 96.8918 296.789 96.5014 297.145 96.3399C297.501 96.1784 297.936 96.3083 298.115 96.6276C298.54 97.3858 298.928 98.1646 299.272 98.9441C300.016 100.635 300.624 102.436 301.079 104.299C301.164 104.649 300.919 104.996 300.529 105.073C300.416 105.095 300.305 105.093 300.201 105.07ZM292.234 91.0294C292.103 91.0008 291.98 90.9391 291.881 90.8444C289.823 88.8817 287.524 87.3073 285.051 86.1666C284.696 86.003 284.556 85.611 284.738 85.2917C284.921 84.9717 285.357 84.8476 285.711 85.0106C288.33 86.2195 290.76 87.882 292.932 89.9533C293.207 90.2147 293.193 90.6257 292.903 90.8716C292.718 91.0287 292.464 91.0808 292.234 91.0294Z" fill="#6464D8"/>
<path d="M293.472 286.053C293.469 286.052 293.465 286.052 293.461 286.05C292.036 285.713 290.623 285.31 289.261 284.852C288.888 284.726 288.698 284.352 288.838 284.016C288.977 283.679 289.392 283.508 289.767 283.635C291.084 284.078 292.45 284.468 293.828 284.794C294.213 284.885 294.444 285.241 294.343 285.587C294.243 285.931 293.855 286.138 293.472 286.053Z" fill="#6464D8"/>
<path d="M200.234 317.521H200.154C197.275 317.521 194.369 317.416 191.518 317.207C191.121 317.178 190.824 316.864 190.857 316.507C190.89 316.15 191.225 315.886 191.635 315.912C194.448 316.118 197.314 316.222 200.154 316.222H200.235C200.634 316.222 200.957 316.513 200.957 316.872C200.957 317.231 200.633 317.521 200.234 317.521ZM208.891 317.202C208.519 317.202 208.203 316.944 208.172 316.605C208.14 316.248 208.436 315.934 208.833 315.905C211.674 315.698 214.55 315.385 217.38 314.976C217.774 314.917 218.145 315.16 218.208 315.514C218.272 315.868 218.004 316.202 217.61 316.259C214.742 316.674 211.829 316.991 208.951 317.201C208.931 317.201 208.912 317.202 208.891 317.202ZM182.977 316.258C182.938 316.258 182.899 316.255 182.859 316.249C180.014 315.828 177.14 315.294 174.315 314.662C173.928 314.575 173.692 314.223 173.789 313.874C173.885 313.525 174.275 313.315 174.664 313.4C177.451 314.024 180.286 314.551 183.094 314.967C183.487 315.025 183.754 315.359 183.689 315.714C183.63 316.032 183.324 316.258 182.977 316.258ZM225.99 314.73C225.664 314.73 225.369 314.531 225.289 314.233C225.195 313.884 225.433 313.534 225.821 313.449C228.595 312.846 231.381 312.136 234.107 311.34C234.484 311.229 234.892 311.415 235.016 311.757C235.14 312.098 234.932 312.465 234.552 312.576C231.792 313.382 228.97 314.101 226.161 314.712C226.104 314.725 226.047 314.73 225.99 314.73ZM166.171 312.501C166.095 312.501 166.017 312.49 165.941 312.467C163.199 311.642 160.455 310.708 157.784 309.691C157.416 309.552 157.244 309.17 157.4 308.84C157.556 308.509 157.98 308.355 158.347 308.495C160.984 309.499 163.693 310.421 166.4 311.235C166.778 311.348 166.982 311.716 166.855 312.057C166.755 312.329 166.473 312.501 166.171 312.501ZM242.46 309.913C242.176 309.913 241.908 309.762 241.792 309.511C241.64 309.179 241.815 308.799 242.184 308.662C244.83 307.68 247.463 306.593 250.008 305.432C250.363 305.267 250.799 305.396 250.978 305.717C251.159 306.037 251.017 306.428 250.661 306.591C248.082 307.767 245.416 308.868 242.735 309.864C242.646 309.897 242.553 309.913 242.46 309.913ZM150.222 306.426C150.11 306.426 149.997 306.403 149.89 306.354C147.32 305.157 144.768 303.854 142.307 302.481C141.968 302.292 141.863 301.892 142.073 301.586C142.283 301.282 142.728 301.187 143.068 301.377C145.499 302.732 148.018 304.019 150.556 305.2C150.91 305.366 151.048 305.758 150.866 306.076C150.735 306.299 150.483 306.426 150.222 306.426ZM257.905 302.865C257.662 302.865 257.424 302.755 257.288 302.554C257.08 302.248 257.188 301.848 257.528 301.661C259.975 300.319 262.383 298.873 264.69 297.366C265.015 297.155 265.465 297.22 265.7 297.51C265.934 297.801 265.862 298.207 265.54 298.418C263.202 299.945 260.76 301.409 258.282 302.77C258.163 302.835 258.033 302.865 257.905 302.865ZM135.503 298.218C135.355 298.218 135.205 298.178 135.077 298.092C132.736 296.55 130.439 294.908 128.249 293.211C127.947 292.976 127.912 292.566 128.173 292.295C128.433 292.023 128.889 291.993 129.192 292.226C131.353 293.901 133.62 295.522 135.93 297.045C136.253 297.257 136.322 297.664 136.086 297.953C135.945 298.126 135.726 298.218 135.503 298.218ZM271.911 293.706C271.71 293.706 271.508 293.63 271.366 293.482C271.104 293.211 271.137 292.801 271.438 292.566L271.55 292.479C271.851 292.242 272.308 292.271 272.568 292.543C272.83 292.814 272.797 293.225 272.496 293.459L272.384 293.547C272.248 293.654 272.079 293.706 271.911 293.706ZM122.386 288.05C122.2 288.05 122.013 287.986 121.872 287.857C119.827 285.996 117.849 284.045 115.995 282.057C115.739 281.782 115.779 281.372 116.084 281.142C116.39 280.912 116.846 280.946 117.102 281.222C118.931 283.183 120.882 285.108 122.9 286.944C123.18 287.199 123.178 287.61 122.894 287.863C122.753 287.987 122.569 288.05 122.386 288.05ZM111.35 276.056C111.111 276.056 110.878 275.951 110.74 275.755C108.976 273.264 107.751 270.907 106.994 268.55C106.884 268.206 107.104 267.846 107.488 267.746C107.871 267.648 108.271 267.846 108.382 268.19C109.099 270.426 110.27 272.673 111.959 275.058C112.173 275.36 112.074 275.763 111.738 275.955C111.617 276.023 111.482 276.056 111.35 276.056Z" fill="#6464D8"/>
<path d="M351.655 185.866C351.095 185.736 350.506 185.219 350.349 184.718L349.889 183.257C349.732 182.756 349.474 182.756 349.317 183.257L348.858 184.718C348.701 185.219 348.112 185.736 347.552 185.866L346.164 186.188C345.603 186.318 345.603 186.531 346.164 186.661L347.552 186.982C348.112 187.112 348.701 187.629 348.858 188.13L349.317 189.591C349.474 190.092 349.732 190.092 349.889 189.591L350.349 188.13C350.506 187.629 351.094 187.112 351.655 186.982L353.043 186.661C353.604 186.531 353.604 186.318 353.043 186.188L351.655 185.866Z" fill="#6A67D6"/>
<path d="M296.271 38.3869C295.6 38.2313 294.897 37.6132 294.708 37.0136L294.159 35.2667C293.971 34.667 293.662 34.667 293.474 35.2667L292.925 37.0136C292.736 37.6132 292.033 38.2313 291.362 38.3869L289.701 38.7722C289.031 38.9278 289.031 39.1825 289.701 39.3382L291.362 39.7235C292.033 39.8791 292.736 40.4971 292.925 41.0968L293.474 42.8437C293.662 43.4434 293.971 43.4434 294.159 42.8437L294.708 41.0968C294.897 40.4971 295.6 39.8791 296.271 39.7235L297.931 39.3382C298.602 39.1825 298.602 38.9278 297.931 38.7722L296.271 38.3869Z" fill="#6A67D6"/>
<path d="M68.2829 243.744C67.3135 243.52 66.2984 242.627 66.0258 241.761L65.2327 239.237C64.9601 238.371 64.5146 238.371 64.2429 239.237L63.4497 241.761C63.1772 242.627 62.1621 243.52 61.1927 243.744L58.7944 244.301C57.825 244.525 57.825 244.893 58.7944 245.118L61.1927 245.674C62.1621 245.899 63.1772 246.791 63.4497 247.657L64.2429 250.181C64.5146 251.047 64.9601 251.047 65.2327 250.181L66.0258 247.657C66.2984 246.791 67.3135 245.899 68.2829 245.674L70.6811 245.118C71.6505 244.893 71.6505 244.525 70.6811 244.301L68.2829 243.744Z" fill="#6A67D6"/>
<path d="M47.9141 277.29C47.3535 277.16 46.7652 276.644 46.6077 276.142L46.1491 274.682C45.9916 274.18 45.7337 274.18 45.5762 274.682L45.1168 276.142C44.9593 276.644 44.3718 277.16 43.8104 277.29L42.4224 277.613C41.8618 277.742 41.8618 277.955 42.4224 278.085L43.8104 278.407C44.371 278.537 44.9593 279.054 45.1168 279.555L45.5762 281.016C45.7337 281.517 45.9916 281.517 46.1491 281.016L46.6077 279.555C46.7652 279.054 47.3527 278.537 47.9141 278.407L49.3021 278.085C49.8627 277.955 49.8627 277.742 49.3021 277.613L47.9141 277.29Z" fill="#6A67D6"/>
<path d="M81.0602 48.6305C80.0908 48.4059 79.0757 47.5133 78.8032 46.6472L78.01 44.1237C77.7375 43.2576 77.2928 43.2576 77.0202 44.1237L76.2271 46.6472C75.9545 47.5133 74.9394 48.4059 73.97 48.6305L71.5718 49.1868C70.6024 49.4114 70.6024 49.7792 71.5718 50.0038L73.97 50.5602C74.9394 50.7848 75.9545 51.6773 76.2271 52.5434L77.0202 55.0669C77.2928 55.933 77.7383 55.933 78.01 55.0669L78.8032 52.5434C79.0757 51.6773 80.0908 50.7848 81.0602 50.5602L83.4585 50.0038C84.4279 49.7792 84.4279 49.4114 83.4585 49.1868L81.0602 48.6305Z" fill="#6A67D6"/>
<path d="M116.842 53.4898C116.281 53.3598 115.693 52.8431 115.536 52.3418L115.077 50.8811C114.919 50.3798 114.662 50.3798 114.504 50.8811L114.046 52.3418C113.888 52.8431 113.301 53.3598 112.739 53.4898L111.351 53.8112C110.791 53.9412 110.791 54.154 111.351 54.2839L112.739 54.6054C113.3 54.7354 113.888 55.2521 114.046 55.7534L114.504 57.2141C114.662 57.7154 114.919 57.7154 115.077 57.2141L115.536 55.7534C115.693 55.2521 116.281 54.7354 116.842 54.6054L118.23 54.2839C118.791 54.154 118.791 53.9412 118.23 53.8112L116.842 53.4898Z" fill="#6A67D6"/>
<path d="M315.821 210.653C314.47 210.34 313.053 209.095 312.673 207.887L311.567 204.367C311.188 203.159 310.566 203.159 310.187 204.367L309.08 207.887C308.701 209.095 307.284 210.34 305.932 210.653L302.586 211.429C301.234 211.742 301.234 212.255 302.586 212.569L305.932 213.345C307.283 213.658 308.7 214.903 309.08 216.111L310.187 219.631C310.566 220.839 311.188 220.839 311.567 219.631L312.673 216.111C313.052 214.903 314.469 213.658 315.821 213.345L319.167 212.569C320.518 212.255 320.518 211.742 319.167 211.429L315.821 210.653Z" fill="#6A67D6"/>
<path d="M345.692 76.8023C344.723 76.5777 343.708 75.6852 343.435 74.8191L342.642 72.2956C342.369 71.4295 341.925 71.4295 341.652 72.2956L340.859 74.8191C340.586 75.6852 339.571 76.5777 338.602 76.8023L336.204 77.3587C335.234 77.5833 335.234 77.9511 336.204 78.1757L338.602 78.732C339.571 78.9566 340.586 79.8492 340.859 80.7153L341.652 83.2388C341.924 84.1049 342.369 84.1049 342.642 83.2388L343.435 80.7153C343.708 79.8492 344.723 78.9566 345.692 78.732L348.09 78.1757C349.06 77.9511 349.06 77.5833 348.09 77.3587L345.692 76.8023Z" fill="#6A67D6"/>
<path d="M55.6624 140.605C54.3111 140.292 52.8945 139.047 52.5143 137.839L51.4086 134.319C51.0291 133.111 50.4074 133.111 50.0279 134.319L48.9222 137.839C48.5428 139.047 47.1262 140.292 45.7741 140.605L42.4285 141.381C41.0772 141.694 41.0772 142.208 42.4285 142.52L45.7741 143.296C47.1254 143.609 48.542 144.854 48.9222 146.062L50.0279 149.582C50.4074 150.79 51.0291 150.79 51.4086 149.582L52.5143 146.062C52.8937 144.854 54.3103 143.609 55.6624 143.296L59.008 142.52C60.3593 142.207 60.3593 141.694 59.008 141.381L55.6624 140.605Z" fill="#6A67D6"/>
<path d="M294.958 191.27C293.988 191.046 292.973 190.153 292.701 189.287L291.907 186.764C291.635 185.897 291.189 185.897 290.918 186.764L290.125 189.287C289.852 190.153 288.837 191.046 287.867 191.27L285.469 191.827C284.5 192.051 284.5 192.419 285.469 192.644L287.867 193.2C288.837 193.425 289.852 194.317 290.125 195.183L290.918 197.707C291.19 198.573 291.635 198.573 291.907 197.707L292.701 195.183C292.973 194.317 293.988 193.425 294.958 193.2L297.356 192.644C298.325 192.419 298.325 192.051 297.356 191.827L294.958 191.27Z" fill="#6A67D6"/>
<path d="M337.63 303.101C336.66 302.876 335.645 301.984 335.373 301.117L334.579 298.594C334.307 297.728 333.862 297.728 333.59 298.594L332.796 301.117C332.524 301.984 331.509 302.876 330.539 303.101L328.141 303.657C327.172 303.882 327.172 304.249 328.141 304.474L330.539 305.03C331.509 305.255 332.524 306.148 332.796 307.014L333.59 309.537C333.861 310.403 334.307 310.403 334.579 309.537L335.373 307.014C335.645 306.148 336.66 305.255 337.63 305.03L340.028 304.474C340.997 304.249 340.997 303.882 340.028 303.657L337.63 303.101Z" fill="#6A67D6"/>
<path d="M298.843 325.832C298.843 326.748 298.018 327.49 297 327.49C295.981 327.49 295.156 326.748 295.156 325.832C295.156 324.917 295.981 324.174 297 324.174C298.018 324.174 298.843 324.917 298.843 325.832Z" fill="#100E68"/>
<path d="M63.2101 299.38C63.2101 300.295 62.3852 301.038 61.3668 301.038C60.3484 301.038 59.5234 300.296 59.5234 299.38C59.5234 298.464 60.3484 297.721 61.3668 297.721C62.3843 297.721 63.2101 298.464 63.2101 299.38Z" fill="#100E68"/>
<path d="M341.938 45.7642C341.938 47.5955 340.287 49.0804 338.251 49.0804C336.215 49.0804 334.564 47.5955 334.564 45.7642C334.564 43.9329 336.215 42.448 338.251 42.448C340.287 42.4487 341.938 43.9329 341.938 45.7642Z" fill="#100E68"/>
<path d="M40.6771 242.034C40.6771 243.865 39.0263 245.35 36.9904 245.35C34.9545 245.35 33.3037 243.865 33.3037 242.034C33.3037 240.203 34.9545 238.718 36.9904 238.718C39.0271 238.719 40.6771 240.203 40.6771 242.034Z" fill="#100E68"/>
<path d="M67.6174 111.038C67.6174 111.954 66.7924 112.696 65.774 112.696C64.7556 112.696 63.9307 111.954 63.9307 111.038C63.9307 110.123 64.7556 109.38 65.774 109.38C66.7916 109.381 67.6174 110.123 67.6174 111.038Z" fill="#100E68"/>
<path d="M250.748 52.5682C250.748 54.3995 249.098 55.8844 247.062 55.8844C245.026 55.8844 243.375 54.3995 243.375 52.5682C243.375 50.7368 245.026 49.252 247.062 49.252C249.098 49.252 250.748 50.7368 250.748 52.5682Z" fill="#100E68"/>
<path d="M60.0531 73.3699C60.0531 75.2013 58.4023 76.6861 56.3664 76.6861C54.3305 76.6861 52.6797 75.2013 52.6797 73.3699C52.6797 71.5386 54.3305 70.0537 56.3664 70.0537C58.4023 70.0537 60.0531 71.5386 60.0531 73.3699Z" fill="#100E68"/>
<path d="M344.47 108.199C344.47 109.114 343.645 109.857 342.627 109.857C341.609 109.857 340.783 109.115 340.783 108.199C340.783 107.283 341.608 106.541 342.627 106.541C343.644 106.541 344.47 107.283 344.47 108.199Z" fill="#100E68"/>
<path d="M156.547 39.1039C156.547 40.0199 155.722 40.762 154.704 40.762C153.685 40.762 152.86 40.0199 152.86 39.1039C152.86 38.1886 153.685 37.4458 154.704 37.4458C155.722 37.4458 156.547 38.1879 156.547 39.1039Z" fill="#100E68"/>
<path d="M341.313 327.49C341.313 329.321 339.662 330.806 337.626 330.806C335.59 330.806 333.939 329.321 333.939 327.49C333.939 325.659 335.59 324.174 337.626 324.174C339.662 324.174 341.313 325.659 341.313 327.49Z" fill="#100E68"/>
<path d="M356.97 209.959C356.97 210.875 356.145 211.617 355.127 211.617C354.109 211.617 353.283 210.875 353.283 209.959C353.283 209.043 354.108 208.301 355.127 208.301C356.145 208.301 356.97 209.043 356.97 209.959Z" fill="#100E68"/>
<path d="M270.855 73.7245L162.686 49.8403L130.833 166.563L239.003 190.448L270.855 73.7245Z" fill="white"/>
<path d="M164.429 141.698C163.608 144.705 160.233 146.544 156.89 145.806C153.547 145.068 151.502 142.032 152.323 139.025C153.144 136.017 156.519 134.178 159.862 134.916C163.205 135.655 165.25 138.691 164.429 141.698Z" fill="#8FD8EB"/>
<mask id="mask0_494_26722" style="mask-type:luminance" maskUnits="userSpaceOnUse" x="152" y="134" width="13" height="12">
<path d="M164.429 141.698C163.608 144.705 160.233 146.544 156.89 145.806C153.547 145.068 151.502 142.032 152.323 139.025C153.144 136.017 156.519 134.178 159.862 134.916C163.205 135.655 165.25 138.691 164.429 141.698Z" fill="white"/>
</mask>
<g mask="url(#mask0_494_26722)">
<path d="M158.325 140.543C159.47 140.796 160.626 140.166 160.907 139.136C161.188 138.107 160.488 137.067 159.343 136.814C158.198 136.562 157.043 137.191 156.761 138.221C156.48 139.252 157.181 140.291 158.325 140.543Z" fill="white"/>
<path d="M158.208 140.978C155.757 140.437 153.283 141.785 152.682 143.99C152.08 146.194 153.579 148.419 156.03 148.96C158.48 149.501 160.954 148.153 161.556 145.949C162.157 143.744 160.658 141.519 158.208 140.978Z" fill="white"/>
</g>
<path d="M216.727 150.316L169.628 139.917L169.159 141.633L216.259 152.033L216.727 150.316Z" fill="#8FD8EB"/>
<path d="M165.072 162.875L156.331 160.945C156.232 160.923 156.132 160.978 156.108 161.066L154.877 165.578C154.852 165.666 154.912 165.756 155.011 165.778L156.705 166.152L156.384 167.331C156.36 167.419 156.4 167.46 156.426 167.476C156.434 167.481 156.447 167.487 156.462 167.49C156.492 167.497 156.536 167.494 156.592 167.46L158.172 166.476L163.753 167.708C163.852 167.73 163.951 167.676 163.976 167.587L165.207 163.075C165.232 162.987 165.17 162.897 165.072 162.875ZM157.317 164.156C157.019 164.09 156.836 163.818 156.908 163.55C156.982 163.281 157.284 163.116 157.582 163.182C157.881 163.248 158.064 163.519 157.991 163.788C157.919 164.057 157.616 164.222 157.317 164.156ZM159.931 164.733C159.632 164.667 159.449 164.395 159.522 164.126C159.595 163.858 159.897 163.693 160.196 163.759C160.495 163.825 160.677 164.096 160.604 164.365C160.532 164.634 160.23 164.799 159.931 164.733ZM162.544 165.31C162.246 165.244 162.063 164.972 162.136 164.703C162.209 164.435 162.511 164.27 162.81 164.336C163.108 164.402 163.291 164.673 163.219 164.942C163.146 165.211 162.844 165.376 162.544 165.31Z" fill="#8FD8EB"/>
<path d="M157.014 125.004L236.782 142.615C237.209 142.709 237.643 142.473 237.749 142.089L238.034 141.043C238.139 140.659 237.876 140.268 237.449 140.173L157.68 122.562C157.253 122.468 156.819 122.704 156.714 123.088L156.428 124.135C156.323 124.519 156.587 124.91 157.014 125.004Z" fill="#B4ADB7"/>
<path d="M155.491 130.517L235.294 148.136C235.711 148.228 236.136 147.997 236.239 147.621L236.533 146.544C236.636 146.169 236.378 145.786 235.961 145.694L156.158 128.075C155.741 127.983 155.316 128.214 155.213 128.59L154.919 129.667C154.816 130.042 155.074 130.425 155.491 130.517Z" fill="#B4ADB7"/>
<path d="M173.804 61.5121L158.36 118.103L239.683 136.059L255.126 79.4682L173.804 61.5121Z" fill="#C4C1FD"/>
<path d="M236.522 75.3643C232.255 79.7074 226.385 82.6045 219.962 83.6416C216.076 84.2648 212.06 84.2384 208.193 83.4934C206.283 83.1234 204.415 82.5788 202.632 81.8573C200.487 80.9941 198.51 79.841 196.421 78.8905C194.241 77.901 191.821 77.0958 189.344 77.4658C187.391 77.7564 185.685 78.7282 184.133 79.7911C182.561 80.8686 181.102 82.0753 179.467 83.0772C177.747 84.1364 175.804 84.8902 173.763 85.2704C171.634 85.6645 169.423 85.68 167.302 85.3064L167.544 84.4197C170.988 85.0135 174.665 84.5195 177.728 82.9686C181.029 81.2994 183.486 78.5036 186.998 77.1421C191.291 75.4737 195.464 77.3065 199.227 79.2053C201.087 80.1478 202.948 81.0668 204.963 81.7112C206.764 82.2896 208.628 82.6911 210.522 82.9289C214.351 83.4038 218.291 83.1675 222.026 82.2874C227.217 81.0638 231.83 78.5682 235.372 75.1096L236.522 75.3643Z" fill="#F9F5FF"/>
<path d="M227.523 133.376L225.69 132.972C225.391 132.696 225.082 132.434 224.762 132.173C221.697 129.668 218.096 128.028 214.184 126.87C210.266 125.711 206.165 124.8 202.725 122.664C201.252 121.755 199.921 120.654 198.924 119.318C197.9 117.942 197.336 116.374 197.031 114.76C196.419 111.548 196.632 108.061 194.586 105.226C192.654 102.553 189.297 100.966 185.946 100.189C181.924 99.2583 177.722 99.5079 173.624 99.7097C170.364 99.8734 166.807 99.9666 163.428 99.5049L163.663 98.6447C164.45 98.757 165.232 98.834 166.01 98.8825C170.35 99.1519 174.684 98.6131 179.021 98.6021C182.802 98.5962 186.599 99.0359 190.021 100.56C193.099 101.933 195.645 104.172 196.721 107.154C197.886 110.374 197.405 113.896 198.767 117.07C200.15 120.3 203.55 122.37 206.956 123.683C211.076 125.276 215.56 125.986 219.572 127.826C222.58 129.208 225.276 131.109 227.523 133.376Z" fill="#F9F5FF"/>
<path d="M242.216 126.738L241.909 127.863C240.333 126.052 238.53 124.401 236.532 122.962C233.425 120.728 229.893 119.103 226.105 118.03C221.689 116.78 216.977 116.057 212.899 113.998C209.832 112.447 207.033 110.091 205.812 107.062C204.496 103.813 205.547 100.389 207.951 97.7902C213.609 91.6599 223.281 91.7582 230.696 88.3568C236.248 85.8077 240.931 81.8411 244.115 77.04L245.166 77.272C241.594 82.7799 236.071 87.2544 229.588 89.8454C222.186 92.8078 211.78 92.9466 207.422 100.099C205.525 103.218 206.104 106.708 208.469 109.472C210.961 112.377 214.697 114.004 218.496 115.095C222.813 116.338 227.299 117.1 231.388 118.924C234.632 120.367 237.602 122.329 240.136 124.649C240.861 125.318 241.558 126.013 242.216 126.738Z" fill="#F9F5FF"/>
<path d="M233.552 102.83C232.297 104.757 231.743 107.061 232.63 109.203C233.576 111.482 235.893 113.053 238.2 114.155C240.381 115.197 242.696 115.979 244.864 117.032L244.609 117.963C243.92 117.607 243.212 117.28 242.487 116.978C239.859 115.871 237.099 114.938 234.829 113.274C232.873 111.835 231.388 109.865 231.185 107.555C230.993 105.375 231.92 103.234 233.308 101.479C236.564 97.3638 242.072 95.9024 247.105 94.2685C248.553 93.8002 250.074 93.257 251.533 92.5913L251.22 93.7378C249.924 94.292 248.591 94.7625 247.295 95.1838C242.202 96.8382 236.463 98.3488 233.552 102.83Z" fill="#F9F5FF"/>
<path d="M225.867 73.0119C225.476 73.2438 225.083 73.4655 224.678 73.6754C219.065 76.6012 212.228 77.3946 206.057 75.5002C200.566 73.8178 195.869 70.3115 193.069 65.771L194.439 66.0734C195.743 67.9899 197.42 69.695 199.36 71.1204C204.204 74.6876 210.611 76.3399 216.801 75.3225C219.513 74.8814 222.128 73.9867 224.478 72.7058L225.867 73.0119Z" fill="#F9F5FF"/>
<path d="M187.601 124.562L186.535 124.327C186.118 121.676 186.032 118.973 185.446 116.342C185.042 114.514 184.39 112.723 183.257 111.153C182.225 109.733 180.838 108.525 179.277 107.572C174.106 104.427 168.007 104.163 161.996 104.754L162.26 103.787C164.646 103.559 167.039 103.474 169.442 103.663C173.26 103.969 177.037 105.007 180.181 107.022C183.443 109.114 185.456 112.108 186.318 115.604C187.046 118.546 187.086 121.59 187.601 124.562Z" fill="#F9F5FF"/>
<path d="M305.348 259.524C305.348 259.524 292.271 249.791 299.052 236.924C300.166 234.804 302.217 233.354 304.546 232.777C306.464 232.299 308.56 232.413 310.496 233.243C313.717 234.612 315.546 237.548 315.407 240.543C317.903 238.55 321.588 237.967 324.809 239.336C329.093 241.16 330.928 245.776 328.892 249.637C328.05 251.243 326.978 252.59 325.764 253.72C318.305 260.708 305.348 259.524 305.348 259.524Z" fill="#DD4911"/>
<path opacity="0.27" d="M305.348 259.524C305.348 259.524 292.271 249.791 299.052 236.924C300.166 234.804 302.217 233.354 304.546 232.777C304.085 234.531 303.92 236.364 304.074 238.174C304.663 245.393 310.457 251.403 318.162 253.319C320.725 253.958 323.277 254.048 325.763 253.72C318.305 260.708 305.348 259.524 305.348 259.524Z" fill="black"/>
<path d="M312.669 106.889C327.363 96.3618 329.788 77.1129 318.084 63.8955C306.381 50.6781 284.982 48.4973 270.287 59.0246C255.593 69.5519 253.169 88.8008 264.872 102.018C276.576 115.236 297.975 117.416 312.669 106.889Z" fill="#F0C42E"/>
<path d="M283.316 79.8052C282.708 77.38 280.276 75.8078 277.883 76.293C276.02 76.671 274.735 78.1852 274.542 79.9813C273.51 78.4333 271.628 77.5613 269.765 77.9393C267.372 78.4245 265.925 80.7843 266.532 83.2095C266.871 84.56 267.776 85.6449 268.924 86.2585L268.924 86.2592C268.924 86.2592 272.165 88.172 277.133 90.3182C280.596 86.4625 282.611 83.484 282.611 83.484L282.61 83.4832C283.355 82.485 283.655 81.1557 283.316 79.8052Z" fill="#DD4911"/>
<path d="M314.177 73.6006C313.569 71.1754 311.137 69.6032 308.743 70.0884C306.88 70.4664 305.596 71.9806 305.403 73.7767C304.371 72.2287 302.489 71.3567 300.626 71.7347C298.232 72.2199 296.786 74.5797 297.394 77.0049C297.732 78.3554 298.638 79.4403 299.786 80.0539L299.785 80.0546C299.785 80.0546 303.026 81.9674 307.994 84.1137C311.457 80.258 313.473 77.2794 313.473 77.2794L313.471 77.2786C314.215 76.2804 314.516 74.9511 314.177 73.6006Z" fill="#DD4911"/>
<path d="M283.213 87.5539C285.165 93.1764 290.082 96.8522 294.699 95.9157C299.316 94.9791 302.003 89.7603 301.083 83.9287L283.213 87.5539Z" fill="#060606"/>
<path d="M284.89 90.9418L301.186 87.6359C301.313 86.4556 301.285 85.2071 301.083 83.9292L283.213 87.5544C283.641 88.7861 284.212 89.9245 284.89 90.9418Z" fill="white"/>
<path opacity="0.11" d="M306.419 55.4751C311.618 59.5987 315.471 65.1837 317.099 71.7347C321.196 88.2254 309.656 104.583 291.323 108.268C283.481 109.845 275.668 108.846 268.972 105.899C276.862 112.156 287.856 115.047 298.907 112.825C317.24 109.139 328.78 92.7821 324.682 76.2913C322.338 66.8528 315.378 59.4189 306.419 55.4751Z" fill="#2A2682"/>
<path d="M324.514 131.531H257.922C248.042 131.531 239.958 138.395 239.958 146.783C239.958 155.171 248.042 162.035 257.922 162.035H279.323L286.672 169.501C286.896 169.73 287.08 169.666 287.08 169.363V162.035H324.515C334.395 162.035 342.479 155.171 342.479 146.783C342.479 138.394 334.395 131.531 324.514 131.531Z" fill="#CFD4ED"/>
<path d="M268.08 150.502C270.538 145.111 267.671 138.948 261.678 136.738C255.684 134.527 248.833 137.106 246.376 142.497C243.918 147.888 246.784 154.051 252.778 156.261C258.772 158.472 265.623 155.893 268.08 150.502Z" fill="#DD4911"/>
<mask id="mask1_494_26722" style="mask-type:luminance" maskUnits="userSpaceOnUse" x="245" y="135" width="24" height="23">
<path d="M268.08 150.502C270.538 145.111 267.671 138.948 261.678 136.738C255.684 134.527 248.833 137.106 246.376 142.497C243.918 147.888 246.784 154.051 252.778 156.261C258.772 158.472 265.623 155.893 268.08 150.502Z" fill="white"/>
</mask>
<g mask="url(#mask1_494_26722)">
<path d="M257.207 146.857C259.425 146.857 261.223 145.239 261.223 143.244C261.223 141.249 259.425 139.631 257.207 139.631C254.989 139.631 253.19 141.249 253.19 143.244C253.19 145.24 254.989 146.857 257.207 146.857Z" fill="white"/>
<path d="M263.283 160.899C266.64 157.88 266.64 152.984 263.283 149.964C259.926 146.944 254.483 146.944 251.126 149.964C247.768 152.984 247.768 157.88 251.126 160.899C254.483 163.919 259.926 163.919 263.283 160.899Z" fill="white"/>
</g>
<g opacity="0.42">
<path d="M329.06 137.271H272.937V139.316H329.06V137.271Z" fill="#606060"/>
<path d="M329.06 142.744H272.937V144.789H329.06V142.744Z" fill="#606060"/>
<path d="M321.963 148.217H272.937V150.262H321.963V148.217Z" fill="#606060"/>
<path d="M311.456 153.691H272.937V155.736H311.456V153.691Z" fill="#606060"/>
</g>
<path d="M277.622 202.6H232.466C231.956 202.6 231.541 202.973 231.541 203.432V226.738C231.541 227.197 231.956 227.57 232.466 227.57H241.216V233.661C241.216 234.117 241.465 234.271 241.614 234.321C241.663 234.338 241.729 234.353 241.806 234.353C241.964 234.353 242.173 234.292 242.397 234.063L248.787 227.57H277.622C278.132 227.57 278.547 227.197 278.547 226.738V203.432C278.547 202.973 278.132 202.6 277.622 202.6ZM240.156 217.505C238.414 217.505 237.002 216.235 237.002 214.669C237.002 213.102 238.414 211.832 240.156 211.832C241.897 211.832 243.309 213.102 243.309 214.669C243.309 216.235 241.897 217.505 240.156 217.505ZM254.967 217.505C253.225 217.505 251.814 216.235 251.814 214.669C251.814 213.102 253.225 211.832 254.967 211.832C256.708 211.832 258.12 213.102 258.12 214.669C258.12 216.235 256.708 217.505 254.967 217.505ZM270.292 217.505C268.551 217.505 267.139 216.235 267.139 214.669C267.139 213.102 268.551 211.832 270.292 211.832C272.033 211.832 273.445 213.102 273.445 214.669C273.445 216.235 272.033 217.505 270.292 217.505Z" fill="#477DED"/>
<path d="M78.9783 83.7759H124.07C124.352 83.7759 124.583 83.952 124.583 84.1664V105.879C124.583 106.094 124.352 106.269 124.07 106.269H104.477L98.3077 111.572C98.12 111.732 97.9674 111.688 97.9674 111.473V106.269H78.9791C78.6967 106.269 78.4658 106.092 78.4658 105.878V84.1656C78.465 83.952 78.6959 83.7759 78.9783 83.7759Z" fill="#DD4911"/>
<path d="M103.227 93.1703C103.222 90.8193 101.337 88.916 99.0172 88.9204C97.2114 88.9234 95.6781 90.0831 95.0882 91.7052C94.4908 90.0853 92.9535 88.9307 91.1477 88.9336C88.8278 88.9373 86.9502 90.8464 86.9551 93.1982C86.9575 94.5076 87.5451 95.6769 88.4647 96.4564L88.4639 96.4571C88.4639 96.4571 91.0163 98.8235 95.1094 101.727C99.1902 98.8103 101.733 96.4351 101.733 96.4351L101.732 96.4344C102.648 95.6512 103.23 94.4797 103.227 93.1703Z" fill="white"/>
<path d="M107.654 99.7651L107.865 97.7114C108.296 97.8567 108.734 97.969 109.176 98.0461C109.618 98.1239 110.012 98.1628 110.358 98.1628C110.866 98.1628 111.254 98.0564 111.524 97.8421C111.794 97.6285 111.929 97.3422 111.929 96.9825C111.929 96.6618 111.832 96.4027 111.638 96.203C111.444 96.0041 111.19 95.9043 110.877 95.9043C110.433 95.9043 109.899 96.0988 109.273 96.4871L107.589 95.8316L108.01 90.4565H114.26L114.017 92.5396H110.195L109.985 94.1566C110.276 93.9915 110.562 93.8748 110.843 93.8073C111.124 93.7397 111.448 93.7052 111.815 93.7052C112.441 93.7052 113.005 93.8462 113.507 94.128C114.009 94.4099 114.403 94.8004 114.69 95.3002C114.975 95.8008 115.119 96.3616 115.119 96.9825C115.119 97.6329 114.93 98.2186 114.552 98.7375C114.174 99.2572 113.653 99.6624 112.989 99.9538C112.325 100.245 111.573 100.391 110.73 100.391C109.737 100.391 108.712 100.183 107.654 99.7651Z" fill="white"/>
<path d="M312.094 281.917H266.52V305.11H312.094V281.917Z" fill="#B8C3E1"/>
<path d="M312.098 304.989L266.523 305.004L289.305 289.61L312.098 304.989Z" fill="#A7B1D8"/>
<path d="M266.515 281.925L312.089 281.91L289.309 299.848L266.515 281.925Z" fill="#CFD4ED"/>
<path d="M320.397 283.087C319.799 288.46 314.472 292.38 308.498 291.842C302.524 291.304 298.166 286.512 298.764 281.139C299.362 275.766 304.69 271.845 310.663 272.383C316.637 272.921 320.994 277.713 320.397 283.087Z" fill="#DD4913"/>
<path d="M305.359 285.904L306.137 283.798C306.96 284.188 307.742 284.416 308.481 284.483C309.372 284.563 309.851 284.305 309.917 283.708C309.963 283.288 309.769 282.969 309.332 282.753C308.895 282.535 308.144 282.379 307.079 282.283L307.281 280.465C308.248 280.552 308.983 280.529 309.487 280.396C309.989 280.264 310.259 280.037 310.295 279.714C310.344 279.274 309.95 279.017 309.114 278.941C308.321 278.87 307.481 278.962 306.596 279.218L306.183 277.167C307.437 276.746 308.721 276.596 310.037 276.714C311.036 276.804 311.825 277.092 312.401 277.579C312.978 278.065 313.226 278.68 313.143 279.422C313.09 279.902 312.903 280.325 312.582 280.69C312.261 281.056 311.854 281.335 311.361 281.528C311.953 281.838 312.405 282.23 312.721 282.702C313.035 283.175 313.163 283.68 313.103 284.218C313.037 284.814 312.802 285.317 312.401 285.725C311.998 286.133 311.466 286.428 310.804 286.611C310.141 286.793 309.397 286.847 308.571 286.772C307.387 286.665 306.317 286.375 305.359 285.904Z" fill="white"/>
<path d="M203.788 197.202C203.788 199.156 202.01 200.754 199.838 200.754H161.851C159.679 200.754 157.901 199.156 157.901 197.202V178.816C157.901 176.862 159.679 175.263 161.851 175.263H199.838C202.01 175.263 203.788 176.862 203.788 178.816V197.202Z" fill="#A338EA"/>
<path d="M176.912 194.155C176.196 194.598 175.61 194.321 175.61 193.539V182.477C175.61 181.695 176.196 181.419 176.912 181.861L185.542 187.202C186.258 187.646 186.258 188.37 185.542 188.814L176.912 194.155Z" fill="white"/>
<path d="M212.825 294.278C212.067 294.745 211.214 295.112 210.286 295.353L179.972 303.151L152.027 332.375L154.907 309.608L99.5572 323.855C94.844 325.063 89.8934 322.593 88.5421 318.354L73.5187 271.117C72.1674 266.884 74.9214 262.425 79.6273 261.209C79.6273 261.209 79.6419 261.209 79.664 261.202L190.355 232.707C195.068 231.499 200.019 233.969 201.37 238.208L216.401 285.445C217.478 288.843 215.92 292.389 212.825 294.278Z" fill="white"/>
<path d="M121.786 281.703C123.099 285.83 120.444 290.132 115.857 291.313C111.269 292.494 106.487 290.106 105.174 285.98C103.861 281.853 106.515 277.551 111.103 276.37C115.69 275.189 120.473 277.577 121.786 281.703Z" fill="#060606"/>
<path d="M151.606 274.027C152.919 278.153 150.265 282.455 145.677 283.636C141.089 284.817 136.307 282.43 134.994 278.303C133.681 274.177 136.335 269.875 140.923 268.694C145.51 267.513 150.293 269.9 151.606 274.027Z" fill="#060606"/>
<path d="M182.723 266.017C184.036 270.144 181.382 274.446 176.794 275.627C172.207 276.808 167.424 274.42 166.111 270.293C164.798 266.167 167.453 261.865 172.04 260.684C176.628 259.503 181.411 261.891 182.723 266.017Z" fill="#060606"/>
<path opacity="0.38" d="M212.825 294.278L210.286 295.353C169.745 245.413 81.826 260.816 79.666 261.202L190.357 232.707C195.07 231.499 200.021 233.969 201.372 238.208L216.403 285.445C217.479 288.843 215.92 292.389 212.825 294.278Z" fill="#D0D0F7"/>
<path d="M266.541 253.785C265.94 255.641 264.693 257.263 263.468 258.852C260.536 262.638 257.604 266.424 254.672 270.216C251.666 274.102 248.46 278.135 243.791 280.291C242.685 279.63 241.646 278.889 240.674 278.081C238.202 276.024 236.176 273.521 234.788 270.757L234.84 270.737C235.353 270.657 235.85 270.536 236.339 270.376C238.655 269.669 240.689 268.22 241.966 266.344C243.176 264.561 243.695 262.411 243.435 260.334C243.376 259.76 243.25 259.193 243.064 258.639L243.049 258.619C247.28 256.102 251.511 253.592 255.741 251.088C257.003 249.533 258.265 247.97 259.534 246.415C260.105 245.714 260.752 244.966 261.679 244.719C261.909 244.659 262.147 244.633 262.37 244.646C263.631 244.68 264.796 245.64 265.487 246.656C266.92 248.764 267.306 251.415 266.541 253.785Z" fill="#060606"/>
<path d="M209.923 298.644C209.937 298.858 209.923 299.065 209.878 299.279C209.692 300.227 208.943 301.028 208.051 301.569C207.161 302.103 206.129 302.423 205.12 302.731C202.336 303.578 199.545 304.426 196.658 304.874C193.771 305.321 190.75 305.355 187.944 304.587C185.576 303.933 183.438 302.737 181.345 301.536C179.074 300.233 176.773 298.879 175.058 297.029C174.917 296.348 174.806 295.653 174.724 294.966C174.382 292.081 174.531 289.15 175.177 286.306C175.274 286.392 175.378 286.48 175.489 286.56C178.517 288.876 182.859 289.764 186.697 288.796C187.594 288.569 188.515 288.216 189.138 287.608L189.101 287.574C189.026 286.98 188.945 286.379 188.871 285.778C189.479 285.912 190.095 286.045 190.704 286.172C192.152 288.749 194.23 291.046 196.746 292.842C198.579 292.281 200.583 292.174 202.476 292.542C204.873 293.009 207.085 294.237 208.614 295.96C209.306 296.735 209.878 297.676 209.923 298.644Z" fill="#060606"/>
<path d="M242.039 259.212C242.507 259.586 242.967 259.96 243.435 260.334C243.694 262.411 243.175 264.56 241.965 266.343C240.689 268.219 238.654 269.668 236.339 270.376C233.474 268.54 230.601 266.71 227.736 264.881C231.656 262.397 234.914 259.093 237.208 255.313C238.818 256.616 240.429 257.918 242.039 259.212Z" fill="#ECB1CB"/>
<path d="M227.736 264.881C227.239 265.195 226.719 265.496 226.2 265.776C222.719 261.122 217.612 257.664 212.357 254.659C207.05 251.628 201.461 248.945 196.569 245.393C192.465 242.408 188.806 238.703 186.824 234.343C186.579 231.9 186.341 229.463 186.089 227.019C186.571 225.777 186.935 224.515 187.062 223.213C187.299 220.735 186.527 218.038 184.404 216.442C181.925 214.566 178.355 214.613 175.126 214.76C168.847 215.047 162.575 215.368 156.303 215.722C167.169 214.333 178.102 213.298 189.058 212.617C192.086 212.43 195.322 212.31 197.935 213.712C199.954 214.794 201.327 216.676 202.114 218.673C202.322 219.194 202.492 219.728 202.634 220.269C213.411 232.06 225.517 242.869 238.706 252.477C238.268 253.445 237.771 254.393 237.208 255.314C234.914 259.093 231.655 262.397 227.736 264.881Z" fill="#DD4911"/>
<path d="M191.396 280.03C190.372 280.464 189.332 280.858 188.279 281.205C184.813 282.361 181.168 283.088 177.479 283.362C176.685 283.422 175.899 283.462 175.104 283.476C173.917 283.502 172.728 283.482 171.541 283.409C170.472 274.843 168.542 266.363 165.789 258.112C164.453 254.105 162.917 250.113 162.516 245.954C162.382 244.524 162.397 243.062 162.598 241.627C150.425 246.542 138.245 251.448 126.072 256.356C123.281 257.477 120.409 258.619 117.358 258.733C113.944 258.86 110.596 257.671 107.768 255.948C105.416 254.513 103.374 252.724 101.385 250.881C101.66 250.327 101.845 249.712 102.001 249.138C103.077 245.179 104.473 241.267 106.335 237.561C106.343 237.541 106.343 237.535 106.343 237.535C106.454 237.308 106.566 237.088 106.684 236.86C107.945 234.43 109.415 232.106 111.13 229.91C113.29 227.152 115.858 224.622 118.768 222.499C123.719 220.582 128.046 218.619 130.711 217.338H130.718C130.726 217.338 130.726 217.338 130.733 217.338C130.74 217.338 130.74 217.338 130.74 217.338C131.587 217.278 132.433 217.217 133.279 217.157C135.78 216.984 138.289 216.817 140.79 216.663C145.956 216.323 151.13 216.009 156.303 215.722C162.575 215.368 168.847 215.047 175.127 214.76C178.356 214.613 181.926 214.566 184.405 216.442C186.528 218.038 187.3 220.736 187.062 223.213C186.936 224.515 186.573 225.777 186.09 227.019C186.343 229.462 186.58 231.899 186.825 234.343C188.353 249.572 189.882 264.801 191.396 280.03Z" fill="#DD4911"/>
<path d="M188.873 285.779C188.947 286.38 189.029 286.98 189.103 287.575L189.141 287.609C188.517 288.216 187.597 288.57 186.698 288.797C182.861 289.765 178.519 288.877 175.49 286.561C175.364 285.532 175.231 284.504 175.104 283.476C179.595 283.383 184.071 282.609 188.28 281.206C188.48 282.734 188.672 284.257 188.873 285.779Z" fill="#ECB1CB"/>
<path opacity="0.5" d="M105.969 238.139C109.355 242.708 116.052 244.141 121.781 243.202C127.647 242.3 132.987 239.704 138.239 237.279C146.172 233.504 153.666 229.189 160.828 224.307C163.281 222.527 167.803 221.608 169.841 224.517C170.33 225.283 170.371 226.025 170.642 226.376C171.355 227.298 172.882 226.622 174.024 226.488C175.768 226.07 177.833 226.528 178.602 228.189C179.716 230.275 178.501 232.47 177.944 234.495C177.17 237.047 176.761 239.687 176.545 242.336C175.378 255.792 180.612 268.945 180.054 282.388C179.928 271.563 176.196 261.18 175.37 250.396C174.898 245.008 175.115 239.492 176.63 234.185C177.188 232.033 178.886 228.981 176.158 227.724C174.854 227.411 173.463 228.062 172.008 228.145C171.078 228.257 169.882 227.868 169.39 227.077C168.873 226.269 168.863 225.584 168.567 225.188C167.007 223.098 163.628 223.951 161.631 225.351C152.034 231.79 141.648 237.414 130.58 241.581C127.798 242.608 124.898 243.468 121.887 243.84C116.012 244.602 109.142 242.954 105.969 238.139Z" fill="black"/>
<path d="M209.923 298.644C209.937 298.858 209.923 299.065 209.878 299.279C209.692 300.227 208.943 301.028 208.052 301.569C207.161 302.103 206.129 302.423 205.12 302.731C202.336 303.578 199.546 304.426 196.658 304.874C193.771 305.321 190.75 305.355 187.944 304.587C185.576 303.933 183.439 302.737 181.345 301.536C179.074 300.234 176.773 298.879 175.058 297.029C174.917 296.348 174.806 295.653 174.725 294.966C176.944 296.421 179.171 297.87 181.397 299.326C184.166 301.135 187.165 303.018 190.593 303.098C195.099 303.211 198.899 300.206 203.204 299.018C205.373 298.418 207.697 298.297 209.923 298.644Z" fill="#C8C8E0"/>
<path d="M266.542 253.785C265.941 255.641 264.694 257.263 263.469 258.853C260.537 262.639 257.605 266.424 254.673 270.216C251.667 274.102 248.461 278.135 243.792 280.291C242.686 279.63 241.647 278.889 240.675 278.081C243.458 277.774 246.123 276.559 248.32 274.957C251.141 272.887 253.308 270.202 255.445 267.552C258.919 263.239 262.511 258.672 263.231 253.384C263.625 250.46 263.112 247.529 262.371 244.645C263.632 244.678 264.797 245.639 265.488 246.654C266.921 248.764 267.307 251.415 266.542 253.785Z" fill="#C8C8E0"/>
<path opacity="0.5" d="M171.57 218.258C175.468 222.283 179.801 225.08 185.269 227.151C179.047 229.047 171.542 224.16 171.57 218.258Z" fill="black"/>
<path opacity="0.5" d="M186.743 216.044C188.557 218.001 190.694 218.936 193.233 219.577C195.853 220.214 198.575 220.264 201.309 221.027C198.595 222.36 195.529 222.845 192.481 222.16C189.489 221.489 186.354 219.005 186.743 216.044Z" fill="black"/>
<path d="M252.34 251.313C252.054 250.81 251.598 250.319 250.94 250.24C250.414 250.176 249.863 250.384 249.637 250.831C249.44 251.22 250.088 251.547 250.286 251.154C250.62 250.496 251.404 251.173 251.631 251.534C251.947 252.037 252.138 252.616 252.241 253.185C252.448 254.327 252.257 255.541 251.695 256.582C250.634 258.546 248.304 259.724 245.908 259.683C245.46 258.004 244.853 256.364 244.082 254.781C243.669 253.93 243.208 253.098 242.703 252.288C242.299 251.637 241.876 250.854 241.068 250.549C240.419 250.304 239.651 250.455 239.286 251.023C238.923 251.587 239.031 252.299 239.188 252.902C239.573 254.381 240.299 255.795 241.282 257.029C242.201 258.182 243.345 259.17 244.646 259.965C242.401 262.004 240.837 264.638 240.26 267.464C240.133 268.089 239.898 268.9 240.335 269.468C240.771 270.033 241.548 269.975 242.022 269.492C242.586 268.917 243.025 268.191 243.437 267.523C243.877 266.811 244.262 266.072 244.596 265.315C245.252 263.829 245.676 262.281 245.905 260.699C247.179 261.323 248.553 261.778 249.98 262.021C250.447 262.101 250.631 261.454 250.16 261.373C248.949 261.168 247.784 260.813 246.686 260.323C248.72 260.16 250.639 259.205 251.829 257.693C253.256 255.875 253.47 253.297 252.34 251.313ZM240.325 253.993C240.088 253.408 239.842 252.768 239.793 252.144C239.744 251.504 240.117 250.776 240.946 251.239C241.588 251.596 241.96 252.446 242.303 253.019C242.701 253.682 243.069 254.359 243.407 255.048C244.099 256.462 244.645 257.93 245.069 259.426C242.911 258.113 241.219 256.198 240.325 253.993ZM242.427 267.759C242.234 268.047 242.033 268.329 241.824 268.607C241.639 268.852 241.319 269.418 240.954 269.089C240.699 268.861 240.858 268.301 240.906 268.022C240.959 267.713 241.023 267.404 241.099 267.098C241.408 265.858 241.909 264.661 242.585 263.544C243.288 262.382 244.178 261.329 245.214 260.394C244.878 262.993 243.926 265.517 242.427 267.759Z" fill="#C8C8E0"/>
<path d="M199.405 281.649C198.577 281.764 197.873 282.288 197.235 282.739C195.804 283.752 194.577 284.986 193.598 286.368C192.886 287.374 192.331 288.464 191.914 289.595C191.773 289.011 191.597 288.444 191.398 287.907C190.829 286.366 190.06 284.893 189.313 283.418C188.907 282.617 188.501 281.816 188.095 281.016C187.795 280.423 187.519 279.808 187.025 279.321C186.075 278.383 184.55 278.704 184.162 279.939C183.934 280.663 184.224 281.417 184.512 282.09C184.802 282.767 185.122 283.434 185.473 284.087C186.94 286.815 188.957 289.296 191.376 291.403C191.37 291.435 191.358 291.467 191.351 291.499C191.32 291.65 191.394 291.765 191.503 291.835C191.53 292.497 191.485 293.161 191.346 293.824C191.082 295.08 190.461 296.65 189.057 297.212C188.397 297.476 187.501 297.498 186.961 297.005C186.501 296.587 186.408 295.936 186.794 295.458C187.073 295.111 186.422 294.791 186.144 295.135C185.359 296.107 186.013 297.496 187.187 297.91C188.571 298.398 190.027 297.701 190.847 296.694C191.944 295.348 192.309 293.69 192.256 292.017C192.349 292.017 192.441 291.987 192.507 291.92C194.082 290.315 195.656 288.709 197.231 287.103C198.028 286.29 198.826 285.478 199.624 284.664C200.173 284.103 200.946 283.445 200.905 282.628C200.868 281.92 200.122 281.549 199.405 281.649ZM187.37 285.832C186.676 284.799 186.062 283.721 185.539 282.609C185.258 282.009 184.907 281.355 184.835 280.7C184.778 280.177 185.042 279.366 185.782 279.412C186.343 279.448 186.713 279.997 186.953 280.395C187.299 280.969 187.572 281.584 187.873 282.178C188.515 283.445 189.175 284.706 189.785 285.985C190.457 287.393 191.049 288.889 191.332 290.417C189.824 289.028 188.487 287.497 187.37 285.832ZM199.582 283.696C199.26 284.034 198.927 284.363 198.6 284.697C197.905 285.406 197.21 286.115 196.515 286.824C195.083 288.283 193.652 289.742 192.222 291.201C192.213 291.194 192.205 291.187 192.197 291.179C192.196 291.176 192.196 291.172 192.195 291.168C192.848 288.539 194.335 286.111 196.478 284.222C197.049 283.717 197.663 283.254 198.319 282.84C198.696 282.602 200.243 281.782 200.158 282.772C200.129 283.113 199.816 283.45 199.582 283.696Z" fill="#C8C8E0"/>
<path d="M118.768 222.499C115.858 224.622 113.29 227.152 111.13 229.91C109.416 232.107 107.946 234.43 106.684 236.86C106.565 237.087 106.454 237.307 106.343 237.535C106.343 237.535 106.343 237.541 106.335 237.561C104.472 241.266 103.077 245.179 102.001 249.138C101.845 249.712 101.66 250.327 101.385 250.881C100.977 251.735 100.375 252.457 99.4098 252.71C98.4004 252.971 97.2793 252.57 96.5449 251.895C95.8023 251.221 95.3796 250.319 95.0679 249.418C94.7709 248.57 94.5408 247.669 93.888 247.014C93.3094 246.434 92.4853 246.126 91.7427 245.725C88.5138 243.989 86.8736 240.19 87.883 236.939C82.9397 230.796 79.2881 223.859 76.4305 216.722C73.417 209.184 71.2717 201.399 69.1934 193.614C69.6756 194.889 77.5655 215.554 86.6729 225.268C92.1507 231.111 107.188 226.965 118.768 222.499Z" fill="#F3D250"/>
<path d="M89.5879 236.869C95.0755 231.732 102.437 228.283 110.202 226.927L113.759 226.29L110.744 228.125C103.404 232.556 99.7683 240.14 96.0278 247.064C98.6961 239.536 102.319 231.563 109.934 227.025L110.477 228.224C102.86 229.509 95.6818 232.57 89.5879 236.869Z" fill="#DF953D"/>
<path d="M157.225 171.558C156.49 169.995 155.748 168.424 154.997 166.867C154.564 165.95 154.124 165.018 153.977 164.034C153.773 162.61 154.189 161.179 154.671 159.806C155.323 157.934 156.09 156.092 156.964 154.286C157.119 153.97 157.282 153.64 157.559 153.398C157.845 153.163 158.261 153.023 158.62 153.148C159.069 153.31 159.216 153.75 159.256 154.198C159.771 154.036 160.35 154.029 160.848 154.212C161.525 154.462 162.039 155.02 162.186 155.651C162.806 155.467 163.557 155.673 164.063 156.077C164.626 156.51 164.968 157.126 165.287 157.736C165.328 157.721 165.368 157.721 165.409 157.714C165.833 157.655 166.29 157.684 166.666 157.875C166.992 158.036 167.237 158.308 167.465 158.572C167.98 159.189 168.42 159.849 168.779 160.547C169.244 160.488 169.775 160.657 170.142 160.95C170.689 161.391 170.966 162.044 171.211 162.668C171.856 164.261 172.5 166.015 171.864 167.616C171.611 168.247 171.178 168.805 170.746 169.355C169.995 170.317 169.236 171.279 168.477 172.24C167.996 173.98 167.514 175.727 167.033 177.474C164.014 175.559 160.496 174.303 156.848 173.826C157.037 173.078 157.159 172.322 157.225 171.558Z" fill="#EBAC98"/>
<path d="M159.248 154.115C159.882 156.47 159.603 159.032 158.594 161.314L158.454 160.913C160.816 162.307 162.625 164.484 163.294 166.907C162.018 164.599 160.148 162.659 157.794 161.318C158.854 159.064 159.308 156.621 159.248 154.115Z" fill="#D87E6F"/>
<path d="M168.739 160.583C167.411 162.151 165.831 163.633 164.33 165.028C163.571 165.849 165.17 166.044 165.846 166.008C166.865 165.953 167.908 165.55 168.655 164.801C168.151 165.705 167.087 166.373 165.907 166.526C165.036 166.631 163.642 166.565 163.399 165.534C163.336 165.136 163.567 164.809 163.762 164.6C165.362 163.136 166.949 161.829 168.739 160.583Z" fill="#D87E6F"/>
<path d="M165.195 157.674C164.5 159.245 163.611 160.713 162.675 162.155C162.18 162.865 161.68 163.575 162.302 163.995C162.912 164.416 163.928 164.489 164.745 164.082C163.987 164.878 161.951 165.013 161.409 163.805C161.134 163.081 161.696 162.359 162.037 161.815C162.993 160.383 163.997 158.977 165.195 157.674Z" fill="#D87E6F"/>
<path d="M162.275 155.639C161.364 157.566 160.247 159.266 158.8 160.906C159.318 158.87 160.54 157.026 162.275 155.639Z" fill="#D87E6F"/>
<path d="M158.721 171.82C161.334 171.35 164.138 171.736 166.469 172.899C163.811 172.621 161.349 172.274 158.721 171.82Z" fill="#D87E6F"/>
<path d="M169.869 177.165C167.583 184.803 163.525 191.872 160.682 199.357C159.718 201.874 158.731 204.384 157.714 206.888C157.676 206.975 157.647 207.055 157.61 207.142C156.638 209.499 155.525 211.929 153.357 213.505C150.989 215.221 147.702 215.614 144.695 215.174C143.033 214.927 141.43 214.46 139.863 213.879C140.175 214.806 140.486 215.735 140.791 216.663C138.29 216.816 135.781 216.983 133.28 217.157C132.433 217.217 131.587 217.277 130.741 217.337C130.801 217.304 130.853 217.277 130.904 217.25C130.845 217.277 130.785 217.304 130.719 217.337H130.712C128.047 218.619 123.719 220.582 118.769 222.498C107.19 226.964 92.1515 231.111 86.6737 225.269C77.5664 215.554 69.6765 194.89 69.1942 193.615C69.1869 193.595 69.1869 193.581 69.1795 193.568C69.1722 193.561 69.1722 193.555 69.1722 193.555C68.1628 191.298 67.2644 189.002 66.4851 186.678C65.5426 183.853 64.7854 180.802 65.7874 177.992C66.7527 175.301 69.1648 173.291 71.6218 171.482V171.475C71.5622 171.068 71.5255 170.661 71.5402 170.253C71.5998 168.217 72.876 166.261 74.7691 165.166C74.3685 163.797 74.9992 162.175 76.3799 161.453C77.7679 160.732 79.497 160.926 81.1078 160.986C83.6317 161.092 85.5827 161.223 88.0022 160.582C88.3498 161.622 88.331 162.65 87.7003 163.678C94.6028 166.389 97.9109 166.846 100.055 167.774C103.466 169.25 107.673 168.47 108.215 168.25C109.492 168.624 110.597 169.445 111.266 170.493C114.769 170.193 118.302 169.946 121.79 170.313C125.516 170.713 129.25 171.882 131.989 174.185C134.156 176.008 135.573 178.412 136.91 180.788C138.706 183.986 142.187 189.161 144.162 192.786C147.561 186.884 152.203 178.419 154.705 172.644C155.276 172.677 157.596 172.643 158.161 172.723C161.479 173.157 164.678 174.299 167.424 176.042C167.748 176.243 169.557 176.951 169.869 177.165Z" fill="#F0C42E"/>
<path opacity="0.5" d="M157.609 207.143C156.636 209.5 155.523 211.93 153.356 213.506C150.988 215.222 147.7 215.615 144.694 215.175C143.032 214.928 141.429 214.461 139.862 213.879C139.862 213.879 133.857 204.833 131.72 202.53C131.72 202.53 122.553 187.174 122.36 183.788C122.36 183.788 136.358 209.927 157.609 207.143Z" fill="black"/>
<path d="M130.903 217.25C130.851 217.277 130.799 217.304 130.74 217.337C130.74 217.337 130.74 217.337 130.732 217.337C130.725 217.337 130.725 217.337 130.718 217.337C130.784 217.304 130.843 217.277 130.903 217.25Z" fill="#E9B86C"/>
<path d="M133.731 214.687C133.813 214.907 133.887 215.127 133.879 215.355C133.872 215.581 133.768 215.815 133.553 215.942C133.441 216.009 133.316 216.036 133.189 216.036C132.877 216.036 132.544 215.862 132.283 215.675C131.103 214.807 130.272 213.619 129.56 212.41C130.287 212.01 131.074 211.529 131.883 211.028C132.655 212.183 133.271 213.405 133.731 214.687Z" fill="black"/>
<path d="M133.464 215.982C133.197 216.122 132.328 216.563 130.992 217.211C132.306 216.53 133.196 216.109 133.464 215.982Z" fill="#CB7432"/>
<path opacity="0.5" d="M177.479 283.362C176.685 283.422 175.898 283.462 175.104 283.476C173.916 283.502 172.728 283.482 171.541 283.409C170.472 274.843 168.542 266.363 165.789 258.112C164.453 254.105 162.917 250.113 162.516 245.954C162.382 244.525 162.397 243.062 162.598 241.627C150.425 246.542 138.245 251.448 126.072 256.356C123.281 257.477 120.409 258.62 117.358 258.733C113.944 258.86 110.596 257.671 107.768 255.948C105.416 254.513 103.374 252.724 101.385 250.881C100.977 251.735 100.375 252.457 99.4098 252.71C98.4005 252.971 97.2793 252.57 96.5449 251.895C95.8023 251.221 95.3796 250.319 95.0679 249.418C94.7709 248.57 94.5408 247.669 93.888 247.014C93.3094 246.434 92.4853 246.126 91.7427 245.725C88.5138 243.989 86.8736 240.19 87.883 236.939C82.9397 230.796 79.2881 223.859 76.4305 216.722C73.417 209.184 71.2717 201.399 69.1934 193.614C69.6756 194.889 77.5655 215.554 86.6729 225.268C92.1507 231.11 107.189 226.964 118.768 222.497C123.718 220.581 128.046 218.618 130.711 217.336H130.718C130.785 217.303 130.845 217.276 130.903 217.25C130.851 217.276 130.8 217.303 130.74 217.336C130.74 217.336 130.74 217.336 130.733 217.336C124.84 220.388 111.375 228.073 106.684 236.859C106.565 237.085 106.454 237.306 106.343 237.533C106.343 237.533 106.343 237.54 106.335 237.56C106.209 238.12 104.316 247.594 119.933 247.294C136.033 246.98 161.476 226.129 165.878 225.762C170.279 225.388 165.856 228.793 168.379 230.088C170.903 231.39 172.224 228.98 175.104 231.083C177.983 233.186 173.681 233.479 173.166 236.404C170.557 251.252 176.937 279.81 177.479 283.362Z" fill="black"/>
<path d="M72.5438 170.67C83.0816 169.419 94.1572 170.097 103.881 174.259L109.083 176.488C96.819 174.111 84.1636 173.044 71.6299 173.732C82.2346 172.156 93.1413 172.424 103.7 174.204L103.242 175.46C93.7623 171.354 82.9617 170.473 72.5438 170.67Z" fill="#DF953D"/>
<path d="M76.6689 165.485C81.3308 164.871 86.3035 165.881 90.2097 168.255C85.5911 167.623 81.1382 166.705 76.6689 165.485Z" fill="#DF953D"/>
<path d="M110.798 171.077C110.401 173.405 108.232 175.436 105.655 175.869C107.014 173.934 108.7 172.372 110.798 171.077Z" fill="#DF953D"/>
<path d="M125.738 202.114C122.699 199.867 121.435 199.807 118.329 202.13C115.851 203.725 113.038 204.907 110.087 205.636C107.117 206.362 104.106 206.442 101.656 207.682C99.2344 208.933 97.4254 211.235 96.9309 213.893C96.7946 211.183 98.4021 208.387 101.046 206.797C103.642 205.228 106.84 205.082 109.699 204.349C112.506 203.681 115.191 202.618 117.692 201.265C120.996 199.111 123.121 199.12 125.738 202.114Z" fill="#DF953D"/>
<path d="M101.219 207.046C97.4474 199.711 89.7966 192.409 92.3515 183.76C91.9313 192.385 99.3495 198.926 101.219 207.046Z" fill="#DF953D"/>
<path d="M94.3883 193.214C93.7943 191.313 94.2659 189.231 95.658 187.701C96.2594 189.602 95.7731 191.682 94.3883 193.214Z" fill="#DF953D"/>
<path d="M121.76 183.967C123.074 186.199 124.674 189.451 125.888 191.753C127.069 194.079 128.796 197.25 129.851 199.607C125.53 195.285 122.661 189.722 121.76 183.967Z" fill="#DF953D"/>
<path d="M133.338 215.975C128.221 219.761 121.975 222.381 115.457 223.456C121.273 220.644 127.204 218.17 133.338 215.975Z" fill="#DF953D"/>
<path d="M142.143 174.192C141.501 172.409 139.949 171.045 138.076 170.276C136.005 169.426 133.724 169.339 131.517 169.763C126.232 170.779 122.234 174.308 117.368 176.184C114.666 177.226 111.575 177.71 108.745 176.8C108.446 176.703 108.167 177.062 108.335 177.291C109.54 178.944 111.478 179.997 113.574 180.506C116.172 181.137 118.909 180.906 121.54 180.591C124.315 180.258 127.155 179.795 129.955 180.174C132.098 180.465 134.139 181.214 135.925 182.313C137.95 183.56 139.598 185.265 140.679 187.246C140.891 187.632 141.531 187.293 141.321 186.91C139.438 183.462 135.854 180.846 131.742 179.833C126.383 178.513 121.045 180.652 115.65 180.169C113.44 179.97 111.178 179.211 109.658 177.729C114.248 178.684 118.81 176.485 122.628 174.351C126.657 172.099 131.447 169.23 136.434 170.447C138.648 170.987 140.701 172.351 141.427 174.368C141.574 174.777 142.289 174.601 142.143 174.192Z" fill="white"/>
<path d="M148.888 187.419C148.131 187.419 147.448 187.82 147.137 188.441L139.15 204.625C138.586 205.76 139.514 207.049 140.902 207.049H138.675C137.287 207.049 136.36 205.76 136.923 204.625L144.91 188.441C145.221 187.82 145.904 187.419 146.662 187.419H148.888Z" fill="#413E44"/>
<path d="M159.353 189.836L151.36 206.02C151.055 206.641 150.372 207.049 149.615 207.049H140.901C139.513 207.049 138.585 205.76 139.149 204.625L147.135 188.441C147.447 187.82 148.13 187.419 148.887 187.419H157.601C158.982 187.419 159.91 188.701 159.353 189.836Z" fill="#606060"/>
<path d="M158.315 189.816C158.315 190.431 157.759 190.931 157.076 190.931H152.54C151.857 190.931 151.301 190.431 151.301 189.816C151.301 189.202 151.857 188.701 152.54 188.701H157.076C157.759 188.701 158.315 189.202 158.315 189.816Z" fill="#413E44"/>
<path d="M131.883 211.028C131.074 211.529 130.287 212.01 129.56 212.41C127.689 209.239 126.457 205.767 125.938 202.209C127.601 201.307 129.248 200.412 130.91 199.504C132.811 197.602 134.718 195.699 136.625 193.796C137.115 193.302 137.62 192.808 138.251 192.474C138.927 192.127 139.713 191.987 140.478 191.853C141.183 191.733 141.881 191.613 142.586 191.493C144.278 191.199 145.97 190.912 147.663 190.618C147.7 190.611 147.737 190.605 147.774 190.598C148.152 190.531 148.546 190.465 148.932 190.531C149.31 190.592 149.689 190.818 149.792 191.152C149.941 191.653 149.473 192.12 149.021 192.441C147.58 193.45 145.881 194.151 144.092 194.457L144.107 194.518C143.55 194.985 142.978 195.459 142.422 195.926C142.963 196.233 143.483 196.56 143.98 196.921C146.875 195.713 149.889 194.704 152.968 193.917C153.889 193.683 154.846 193.463 155.789 193.603C156.005 193.637 156.22 193.683 156.391 193.803C156.561 193.917 156.688 194.11 156.65 194.304C156.613 194.531 156.375 194.685 156.168 194.811C153.904 196.18 151.633 197.548 149.376 198.911C150.98 198.59 152.583 198.27 154.178 197.949C155.092 197.074 156.249 196.4 157.511 196.019C157.89 195.906 158.365 195.839 158.624 196.106C158.869 196.346 158.795 196.714 158.713 197.027C158.475 197.882 158.238 198.743 157.785 199.518C157.421 200.132 156.894 200.699 156.234 201.053C156.174 201.801 155.996 202.529 155.455 203.083C155.002 203.55 154.356 203.817 153.695 204.024C153.346 204.685 152.968 205.34 152.478 205.927C151.84 206.708 151.001 207.382 149.977 207.703C149.071 207.984 148.092 207.964 147.134 207.943C143.756 207.87 140.372 207.796 136.995 207.723L136.988 207.87C135.431 208.738 133.613 209.946 131.883 211.028Z" fill="#EBAC98"/>
<path d="M147.644 200.23C150.247 198.213 152.982 196.352 155.752 194.53C156.287 194.199 156.441 193.995 156.016 193.73C155.529 193.516 154.974 193.746 154.408 193.851L153.173 194.141C151.52 194.542 149.904 195.035 148.286 195.541C150.163 194.59 152.176 193.859 154.234 193.288C155.094 193.024 156.499 192.678 156.945 193.793C157.148 194.353 156.61 194.821 156.187 195.07C153.401 196.871 150.584 198.63 147.644 200.23Z" fill="#D87E6F"/>
<path d="M148.684 203.094C151.145 202.105 153.878 201.598 156.292 200.574C157.131 199.944 157.379 198.853 157.906 197.982C158.067 197.665 158.263 197.336 158.373 197.053C158.613 196.464 158.272 195.957 157.523 196.211C156.458 196.574 155.482 197.182 154.65 197.905C155.344 197.03 157.506 194.971 158.747 195.965C159.126 196.327 159.126 196.845 158.995 197.223C158.563 198.285 158.11 199.158 157.576 200.193C156.795 201.629 154.772 201.718 153.271 202.132C151.752 202.483 150.229 202.824 148.684 203.094Z" fill="#D87E6F"/>
<path d="M156.258 201.015C156.374 203.097 155.394 203.693 153.418 204.485C151.912 205.112 150.384 205.694 148.758 206.09C150.134 205.215 151.606 204.526 153.102 203.881C153.845 203.55 154.669 203.324 155.2 202.904C155.743 202.466 155.985 201.725 156.258 201.015Z" fill="#D87E6F"/>
<path d="M80.9433 137.626C81.0257 139.044 80.9303 141.574 83.8173 148.031C84.4064 149.35 88.7949 158.266 88.6896 159.357C89.38 158.963 89.7733 153.542 89.7733 153.542C89.7733 153.542 88.2131 145.317 89.0935 146.218C91.934 143.198 93.6844 139.358 94.0263 135.414C95.7798 137.742 98.2572 139.616 101.109 140.773C104.066 141.965 107.408 142.368 110.606 141.924C106.405 140.585 102.89 137.585 101.182 133.874C102.988 135.689 104.946 137.43 107.31 138.622C109.445 139.701 111.954 140.284 114.359 139.951C114.664 141.054 114.739 141.781 114.739 141.781C114.739 141.781 114.85 143.395 114.877 145.796C115.771 145.305 116.548 144.65 117.172 143.899C119.911 141.463 119.884 137.448 117.05 135.091C119.595 132.462 120.712 128.305 117.482 125.687C114.359 123.153 110.401 124.732 107.352 126.646C107.372 125.325 106.799 123.998 105.746 123.033C103.975 121.414 101.277 120.937 98.8602 121.397C94.1666 122.283 90.3795 125.824 88.6602 129.774C87.4256 129.244 85.8687 129.393 84.7083 130.081C83.3938 130.856 80.7246 133.842 80.9433 137.626Z" fill="#060606"/>
<path d="M88.6904 130.476C88.8838 127.636 89.9609 124.75 91.9389 122.472C94.5664 119.452 99.3768 117.294 103.567 118.842C104.564 119.259 105.436 119.959 105.842 120.842C105.196 120.094 104.299 119.601 103.351 119.361C100.449 118.682 97.3441 119.723 95.0226 121.306C91.7292 123.52 89.9169 126.982 88.6904 130.476Z" fill="#060606"/>
<path d="M88.7121 130.586C87.1453 128.566 87.4236 125.477 89.3453 123.718C89.0907 126.067 88.8842 128.231 88.7121 130.586Z" fill="#060606"/>
<path d="M93.8711 134.723C96.3313 140.753 103.317 143.81 110.111 141.847C103.743 145.66 94.4562 141.579 93.8711 134.723Z" fill="#060606"/>
<path d="M114.558 139.706C115.291 141.81 115.335 143.492 115.335 143.492C115.335 143.492 115.242 150.115 114.009 155.878C113.201 159.649 111.165 162.66 109.113 164.388C108.682 164.756 108.243 165.063 107.818 165.309C107.189 165.674 106.585 165.899 106.041 165.977C103.394 166.344 98.2843 164.017 94.6042 160.608C90.9265 157.205 91.5548 152.195 91.5548 152.195C91.5548 152.195 90.7372 151.991 89.7433 151.552C88.1708 150.856 86.1553 149.584 86.2598 147.636C86.3797 145.443 88.3079 144.128 90.2516 144.461C90.8636 144.56 91.4748 144.821 92.0256 145.271C92.0256 145.271 92.033 145.269 92.0305 145.263C94.3202 142.95 95.1566 139.537 94.1366 136.57C94.3822 137.164 94.8253 137.662 95.3753 138.07L95.3777 138.077C95.736 138.332 96.1358 138.554 96.5577 138.712C96.565 138.709 96.5675 138.716 96.5699 138.722C96.7943 138.814 97.0367 138.894 97.2725 138.955C98.7609 139.331 100.351 139.216 101.881 139.028C103.421 138.844 104.967 138.595 106.509 138.721C107.484 138.806 108.48 139.067 109.308 139.543C109.782 139.813 110.195 140.15 110.519 140.564C109.975 139.214 108.928 138.029 107.584 137.255C107.416 137.145 107.229 137.048 107.038 136.959C105.439 136.193 103.523 135.993 101.768 136.392L101.751 136.369C103.064 135.415 104.975 135.398 106.621 135.775C108.311 136.166 109.887 136.91 111.587 137.263C112.236 137.4 112.892 137.47 113.559 137.489C113.987 138.246 114.315 138.998 114.558 139.706Z" fill="#EBAC98"/>
<path d="M95.376 138.069L95.3785 138.076C95.509 140.756 94.2769 143.487 92.0549 145.283C92.0451 145.279 92.0402 145.266 92.0312 145.263C94.3209 142.95 95.1573 139.537 94.1373 136.57C94.383 137.164 94.826 137.661 95.376 138.069Z" fill="#D87E6F"/>
<path d="M111.01 142.446C110.261 141.218 108.765 140.497 107.25 140.214C105.735 139.931 104.171 140.031 102.617 140.057C101.075 140.092 99.4785 140.047 98.044 139.527C97.5136 139.332 97.0142 139.057 96.5703 138.721C96.7947 138.814 97.0371 138.894 97.2729 138.954C98.7613 139.331 100.352 139.215 101.882 139.027C103.421 138.843 104.967 138.594 106.509 138.721C107.484 138.805 108.481 139.066 109.309 139.543C110.127 140.362 110.721 141.37 111.01 142.446Z" fill="#D87E6F"/>
<path d="M114.557 139.706C114.508 139.701 114.459 139.695 114.409 139.689C113.748 139.605 113.106 139.466 112.478 139.267C110.832 138.749 109.355 137.853 107.726 137.295C107.681 137.281 107.634 137.259 107.585 137.254C107.416 137.144 107.23 137.047 107.039 136.958C105.439 136.193 103.523 135.992 101.768 136.392L101.751 136.369C103.064 135.415 104.975 135.398 106.621 135.774C108.312 136.166 109.887 136.91 111.587 137.263C112.237 137.399 112.893 137.47 113.559 137.488C113.986 138.246 114.315 138.998 114.557 139.706Z" fill="#D87E6F"/>
<path d="M114.382 136.655C114.174 136.429 113.978 136.195 113.812 135.951C113.7 135.786 113.61 135.612 113.518 135.437C113.444 135.298 113.29 134.972 113.169 134.713C113.136 134.645 113.098 134.57 113.078 134.534C112.987 134.371 112.884 134.217 112.775 134.065C111.105 133.503 108.613 133.435 107.25 133.25C104.425 132.866 101.592 132.528 98.7455 132.3C96.7055 132.136 92.6589 131.244 90.7707 131.996C89.7001 132.423 90.2485 132.305 89.9515 133.94C89.7785 134.891 89.5304 135.749 89.1428 136.642C88.1546 138.921 86.7438 140.95 86.0673 143.353C84.7666 147.978 87.7964 150.577 89.1754 154.477C89.3631 153.505 89.5508 152.534 89.7393 151.56L89.7442 151.551C88.1718 150.855 86.1562 149.583 86.2607 147.636C86.3806 145.442 88.3088 144.127 90.2526 144.46C90.8646 144.559 91.4757 144.821 92.0265 145.271C94.3236 142.956 95.1567 139.537 94.1375 136.569C94.6328 137.75 95.9115 138.601 97.2734 138.954C98.7618 139.33 100.352 139.215 101.882 139.027C103.422 138.843 104.967 138.594 106.51 138.72C108.047 138.855 109.625 139.423 110.521 140.563C109.906 139.031 108.644 137.715 107.04 136.957C105.441 136.192 103.525 135.991 101.77 136.391L101.752 136.368C103.065 135.414 104.976 135.397 106.622 135.773C108.313 136.165 109.889 136.909 111.589 137.262C112.238 137.398 112.894 137.469 113.561 137.487C113.988 137.496 114.418 137.477 114.844 137.435C114.644 137.185 114.478 136.919 114.382 136.655Z" fill="#060606"/>
<path d="M107.819 165.309C108.036 167.439 108.267 169.565 108.484 171.695C106.572 170.773 104.591 169.957 102.568 169.253C97.5763 167.496 92.2919 166.404 86.9463 166.03C87.1674 164.873 87.3959 163.713 87.6219 162.548C87.9989 160.592 88.3759 158.638 88.7505 156.676C89.0842 154.974 89.4082 153.269 89.7395 151.561L89.7444 151.552C90.7382 151.991 91.5559 152.195 91.5559 152.195C91.5559 152.195 91.4245 153.218 91.6244 154.654C91.6244 154.654 91.6269 154.66 91.622 154.669C91.8684 156.408 92.5906 158.748 94.6045 160.607C98.2846 164.016 103.394 166.344 106.042 165.976C106.585 165.899 107.19 165.674 107.819 165.309Z" fill="#EBAC98"/>
<path d="M107.819 165.309C108.036 167.439 108.267 169.565 108.484 171.695C106.223 170.966 104.261 170.138 102.568 169.253C91.5837 163.508 91.609 155.246 91.622 154.669C91.8685 156.409 92.5906 158.748 94.6045 160.608C98.2847 164.017 103.394 166.344 106.042 165.977C106.585 165.899 107.191 165.674 107.819 165.309Z" fill="#D87E6F"/>
<path d="M93.9427 136.252C94.0585 137.631 95.2099 138.764 96.5702 139.271C100.252 140.574 104.14 138.386 107.942 139.071C108.716 139.222 109.48 139.468 110.108 139.89C109.398 139.602 108.649 139.435 107.891 139.395C105.555 139.215 103.398 139.96 101.065 140.241C98.0937 140.769 93.6946 139.57 93.9427 136.252Z" fill="#060606"/>
<path d="M87.3271 146.058C89.1485 147.026 90.3831 148.193 91.3786 149.871C91.492 147.938 89.4765 146.046 87.3271 146.058Z" fill="#D87E6F"/>
<path d="M89.8881 147.46C88.9244 147.999 88.7008 149.313 89.4499 150.082C89.7592 149.098 89.8579 148.483 89.8881 147.46Z" fill="#D87E6F"/>
<path d="M107.932 145.655C109.003 148.281 110.249 150.809 111.885 153.18C111.114 153.887 110.131 154.407 109.078 154.64C108.119 154.854 107.102 154.845 106.187 154.589C108.04 154.688 109.906 154.084 111.18 152.9L111.13 153.297C109.474 150.998 108.299 148.379 107.932 145.655Z" fill="#D87E6F"/>
<path d="M111.432 153.126C111.432 153.126 109.919 152.42 107.487 153.081C105.056 153.742 106.621 154.606 107.618 154.658C108.615 154.71 110.876 153.839 111.432 153.126Z" fill="#D87E6F"/>
<path d="M101.846 154.837C101.846 154.837 105.572 157.321 108.968 157.915C108.968 157.915 107.064 159.467 105.235 159.35C103.407 159.234 101.846 154.837 101.846 154.837Z" fill="white"/>
<path d="M99.6094 145.338C100.761 143.84 103.139 143.528 105.028 144.64C103.091 144.96 101.582 145.148 99.6094 145.338Z" fill="#D87E6F"/>
<path d="M98.9238 145.806C100.496 144.019 104.125 144.228 105.425 146.186C103.34 145.065 101.152 144.933 98.9238 145.806Z" fill="#060606"/>
<path d="M104.225 145.607C104.439 146.161 104.114 146.766 103.498 146.958C102.882 147.151 102.209 146.857 101.995 146.304C101.782 145.75 102.107 145.145 102.723 144.952C103.339 144.759 104.012 145.053 104.225 145.607Z" fill="#060606"/>
<path d="M109.597 146.465C110.717 145.308 112.908 145.276 114.138 146.336C112.446 146.468 111.293 146.46 109.597 146.465Z" fill="#D87E6F"/>
<path d="M109.056 146.968C110.367 145.175 113.655 145.863 114.507 147.676C112.769 146.645 111.025 146.128 109.056 146.968Z" fill="#060606"/>
<path d="M113.599 147.005C113.812 147.559 113.487 148.164 112.871 148.356C112.255 148.549 111.582 148.256 111.368 147.702C111.155 147.148 111.48 146.543 112.096 146.35C112.712 146.158 113.385 146.452 113.599 147.005Z" fill="#060606"/>
<path d="M98.4424 143.781C99.912 142.319 103.369 140.975 104.897 143.058L104.838 143.181C103.606 143.455 102.791 143.366 101.643 143.224C100.578 143.228 99.5105 143.451 98.533 143.887L98.4424 143.781Z" fill="#060606"/>
<path d="M110.428 143.718C111.059 142.909 112.064 142.962 112.837 143.48C113.562 143.833 114.171 144.398 114.5 145.066L114.386 145.152C114.061 144.971 113.746 144.814 113.408 144.714C113.079 144.606 112.75 144.53 112.426 144.482C112.094 144.433 111.76 144.544 111.473 144.419C111.173 144.302 110.874 144.161 110.451 143.85L110.428 143.718Z" fill="#060606"/>
<path d="M99.5271 150.51C99.9098 151.502 99.3264 152.585 98.224 152.929C97.1215 153.274 95.9171 152.749 95.5344 151.757C95.1517 150.766 95.7352 149.682 96.8376 149.339C97.9408 148.994 99.1444 149.519 99.5271 150.51Z" fill="#D87E6F"/>
<path d="M103.244 160.337C104.225 160.121 104.76 160.091 105.762 160.213C105.213 160.977 103.884 161.04 103.244 160.337Z" fill="#D87E6F"/>
</g>
<defs>
<clipPath id="clip0_494_26722">
<rect width="390" height="367" fill="white"/>
</clipPath>
</defs>
</svg>
