<svg width="4" height="18" viewBox="0 0 4 18" fill="none" xmlns="http://www.w3.org/2000/svg">
<path fill-rule="evenodd" clip-rule="evenodd" d="M-8.74228e-08 9C-1.35706e-07 7.8954 0.8954 7 2 7C3.1046 7 4 7.8954 4 9C4 10.1046 3.1046 11 2 11C0.8954 11 -3.91392e-08 10.1046 -8.74228e-08 9Z" fill="#FCFCFC"/>
<path fill-rule="evenodd" clip-rule="evenodd" d="M-8.74228e-08 2C-1.35706e-07 0.8954 0.8954 -3.91392e-08 2 -8.74228e-08C3.1046 -1.35706e-07 4 0.8954 4 2C4 3.1046 3.1046 4 2 4C0.8954 4 -3.91392e-08 3.1046 -8.74228e-08 2Z" fill="#FCFCFC"/>
<path fill-rule="evenodd" clip-rule="evenodd" d="M-8.74228e-08 16C-1.35705e-07 14.8954 0.8954 14 2 14C3.1046 14 4 14.8954 4 16C4 17.1046 3.1046 18 2 18C0.8954 18 -3.91405e-08 17.1046 -8.74228e-08 16Z" fill="#FCFCFC"/>
</svg>
