<svg xmlns="http://www.w3.org/2000/svg" width="19.5" height="19.5" viewBox="0 0 19.5 19.5">
  <g id="Icon_feather-grid" data-name="Icon feather-grid" transform="translate(-3.75 -3.75)">
    <path id="Path_200068" data-name="Path 200068" d="M4.5,3.75h7a.75.75,0,0,1,.75.75v7a.75.75,0,0,1-.75.75h-7a.75.75,0,0,1-.75-.75v-7A.75.75,0,0,1,4.5,3.75Zm6.25,1.5H5.25v5.5h5.5Z" fill="#fff"/>
    <path id="Path_200069" data-name="Path 200069" d="M21,3.75h7a.75.75,0,0,1,.75.75v7a.75.75,0,0,1-.75.75H21a.75.75,0,0,1-.75-.75v-7A.75.75,0,0,1,21,3.75Zm6.25,1.5h-5.5v5.5h5.5Z" transform="translate(-5.5)" fill="#fff"/>
    <path id="Path_200070" data-name="Path 200070" d="M21,20.25h7a.75.75,0,0,1,.75.75v7a.75.75,0,0,1-.75.75H21a.75.75,0,0,1-.75-.75V21A.75.75,0,0,1,21,20.25Zm6.25,1.5h-5.5v5.5h5.5Z" transform="translate(-5.5 -5.5)" fill="#fff"/>
    <path id="Path_200071" data-name="Path 200071" d="M4.5,20.25h7a.75.75,0,0,1,.75.75v7a.75.75,0,0,1-.75.75h-7A.75.75,0,0,1,3.75,28V21A.75.75,0,0,1,4.5,20.25Zm6.25,1.5H5.25v5.5h5.5Z" transform="translate(0 -5.5)" fill="#fff"/>
  </g>
</svg>
