<svg width="22" height="25" viewBox="0 0 22 25" fill="none" xmlns="http://www.w3.org/2000/svg">
<path d="M21.245 10.4593C21.1789 7.014 20.6989 4.47291 20.7055 4.47057C20.5058 4.08104 20.1556 3.75525 19.7272 3.58885C16.9147 2.49807 14.1491 1.45697 11.4528 0.568691C11.1772 0.477754 10.8866 0.477754 10.6114 0.568691C7.91561 1.45463 5.15046 2.49385 2.33843 3.58322C1.96014 3.72994 1.6428 4.00135 1.43608 4.33135C1.45202 4.33322 0.858113 6.18713 0.756863 10.2817C0.696863 14.3767 1.20686 15.6034 1.18999 15.6048C1.46608 16.5048 1.98264 17.4203 2.7228 18.3512C3.55014 19.3909 4.66811 20.4648 6.01858 21.5204C8.25405 23.2749 10.3461 24.3235 10.4337 24.3606C10.6236 24.4534 10.8247 24.5007 11.0319 24.5003C11.2395 24.5003 11.4406 24.4529 11.63 24.3596C11.7181 24.3226 13.8125 23.2707 16.047 21.5167C17.398 20.4601 18.5159 19.3862 19.3437 18.347C20.1369 17.3499 20.6731 16.3717 20.9323 15.4107C20.922 15.4093 21.297 13.9056 21.245 10.4598V10.4593ZM12.1447 13.1467V15.3296C12.1447 15.9446 11.6464 16.4429 11.0314 16.4434C10.4164 16.4434 9.91764 15.9451 9.91764 15.3301V13.1776C9.11514 12.7787 8.56296 11.9509 8.56296 10.9942C8.56296 9.64791 9.65421 8.55619 11.0005 8.55619C12.3467 8.55619 13.438 9.64744 13.4384 10.9937C13.4384 11.9265 12.9144 12.737 12.1447 13.1467Z" fill="#BDBDBD"/>
</svg>
