<svg width="22" height="22" viewBox="0 0 22 22" fill="none" xmlns="http://www.w3.org/2000/svg">
<path d="M11 21.75C8.87386 21.75 6.79545 21.1195 5.02763 19.9383C3.2598 18.7571 1.88194 17.0782 1.0683 15.1139C0.254658 13.1495 0.0417719 10.9881 0.456563 8.90278C0.871354 6.81749 1.89519 4.90202 3.39861 3.39861C4.90202 1.89519 6.81749 0.871354 8.90278 0.456563C10.9881 0.0417719 13.1495 0.254658 15.1139 1.0683C17.0782 1.88194 18.7571 3.2598 19.9383 5.02763C21.1195 6.79545 21.75 8.87386 21.75 11C21.7468 13.8501 20.6132 16.5826 18.5979 18.5979C16.5826 20.6132 13.8501 21.7468 11 21.75ZM11 1.75001C9.17053 1.75001 7.38214 2.29251 5.86098 3.30891C4.33983 4.32531 3.15423 5.76997 2.45412 7.46018C1.75401 9.1504 1.57083 11.0103 1.92774 12.8046C2.28465 14.5989 3.16563 16.2471 4.45927 17.5407C5.7529 18.8344 7.4011 19.7154 9.19542 20.0723C10.9897 20.4292 12.8496 20.246 14.5398 19.5459C16.23 18.8458 17.6747 17.6602 18.6911 16.139C19.7075 14.6179 20.25 12.8295 20.25 11C20.2474 8.54757 19.272 6.19633 17.5378 4.46219C15.8037 2.72805 13.4524 1.75265 11 1.75001ZM17 11C17 9.81332 16.6481 8.65328 15.9888 7.66658C15.3295 6.67989 14.3925 5.91085 13.2961 5.45673C12.1997 5.0026 10.9934 4.88378 9.82946 5.11529C8.66558 5.34681 7.59648 5.91825 6.75737 6.75737C5.91825 7.59648 5.34681 8.66558 5.11529 9.82946C4.88378 10.9934 5.0026 12.1997 5.45673 13.2961C5.91085 14.3925 6.67989 15.3295 7.66658 15.9888C8.65328 16.6481 9.81332 17 11 17C12.5913 17 14.1174 16.3679 15.2426 15.2426C16.3679 14.1174 17 12.5913 17 11Z" fill="#A858F4"/>
</svg>
