<svg width="24" height="24" viewBox="0 0 24 24" fill="none" xmlns="http://www.w3.org/2000/svg">
<g clip-path="url(#clip0_809_19014)">
<path d="M13.5743 4.94995H2.6246C1.1804 4.94995 -0.0012207 6.13157 -0.0012207 7.57577V16.4248C-0.0012207 17.869 1.1804 19.0506 2.6246 19.0506H13.5743C15.0185 19.0506 16.2001 17.869 16.2001 16.4248V7.57577C16.2001 6.10531 15.0185 4.94995 13.5743 4.94995Z" fill="#FCFCFC"/>
<path d="M22.0566 6.3941C21.899 6.42036 21.7415 6.49913 21.6102 6.57791L17.5139 8.94115V15.0331L21.6365 17.3963C22.3979 17.8427 23.3432 17.5801 23.7896 16.8186C23.9209 16.5823 23.9997 16.3197 23.9997 16.0309V7.91708C23.9997 6.94552 23.0807 6.15778 22.0566 6.3941Z" fill="#FCFCFC"/>
</g>
<defs>
<clipPath id="clip0_809_19014">
<rect width="24" height="24" fill="white"/>
</clipPath>
</defs>
</svg>
