<svg width="252" height="251" viewBox="0 0 252 251" fill="none" xmlns="http://www.w3.org/2000/svg">
<g clip-path="url(#clip0_1292_58006)">
<path d="M215.42 185.979L152.76 134.133C150.317 137.726 147.509 141.143 144.326 144.326C141.143 147.509 137.726 150.317 134.133 152.76L185.979 215.42C193.836 224.916 208.161 225.59 216.876 216.876C225.592 208.161 224.917 193.836 215.42 185.979Z" fill="#989898"/>
<path d="M141.074 141.074C166.719 115.439 166.719 73.8705 141.074 48.2255C115.439 22.5915 73.8702 22.5915 48.2262 48.2255C22.5913 73.8705 22.5913 115.439 48.2262 141.074C73.8712 166.719 115.44 166.719 141.074 141.074ZM57.5122 57.5125C77.9932 37.0315 111.307 37.0315 131.789 57.5125C152.271 77.9945 152.271 111.307 131.789 131.789C111.308 152.27 77.9942 152.27 57.5122 131.789C37.0302 111.307 37.0302 77.9935 57.5122 57.5125Z" fill="#989898"/>
<path d="M123.948 66.0107C141.034 83.1067 142.48 109.995 128.313 128.759C128.384 128.688 128.465 128.617 128.535 128.547C147.228 109.854 147.228 79.4497 128.545 60.7567C119.502 51.7237 107.467 46.7517 94.6546 46.7517C81.8326 46.7517 69.7976 51.7227 60.7547 60.7567C59.1687 62.3537 57.7136 64.0407 56.3896 65.7887C65.4026 56.8967 77.3456 51.9967 90.0566 51.9967C102.871 51.9957 114.905 56.9767 123.948 66.0107Z" fill="#989898"/>
<path d="M64.73 92.2951C67.9648 92.2951 70.587 89.6728 70.587 86.4381C70.587 83.2033 67.9648 80.5811 64.73 80.5811C61.4953 80.5811 58.873 83.2033 58.873 86.4381C58.873 89.6728 61.4953 92.2951 64.73 92.2951Z" fill="#989898"/>
<path d="M119.784 87.492C119.784 90.727 117.162 93.349 113.927 93.349C110.692 93.349 108.07 90.727 108.07 87.492C108.07 84.257 110.692 81.635 113.927 81.635C117.162 81.635 119.784 84.257 119.784 87.492Z" fill="#989898"/>
<path d="M75.1808 123.171C83.7148 116.114 96.1218 116.114 104.656 123.171C105.603 123.953 105.786 125.194 105.134 125.821C104.481 126.451 103.359 126.352 102.568 125.701C95.2428 119.644 84.5928 119.644 77.2668 125.701C76.4758 126.351 75.3538 126.451 74.7018 125.821C74.0508 125.194 74.2338 123.953 75.1808 123.171Z" fill="#989898"/>
<path d="M71.7525 76.118C67.3545 78.406 62.1125 78.406 57.7145 76.118C57.3055 75.906 57.1465 75.442 57.3475 75.11C57.5485 74.778 57.9995 74.682 58.3635 74.87C62.3545 76.946 67.1125 76.946 71.1045 74.87C71.4685 74.681 71.9195 74.777 72.1205 75.11C72.3205 75.442 72.1605 75.906 71.7525 76.118Z" fill="#989898"/>
<path d="M120.95 76.118C116.552 78.406 111.31 78.406 106.912 76.118C106.503 75.906 106.344 75.442 106.545 75.11C106.746 74.778 107.196 74.682 107.561 74.87C111.552 76.946 116.31 76.946 120.302 74.87C120.666 74.681 121.116 74.777 121.318 75.11C121.518 75.442 121.358 75.906 120.95 76.118Z" fill="#989898"/>
</g>
<defs>
<clipPath id="clip0_1292_58006">
<rect width="251" height="251" fill="white" transform="translate(0.5)"/>
</clipPath>
</defs>
</svg>
