<svg width="24" height="24" viewBox="0 0 24 24" fill="none" xmlns="http://www.w3.org/2000/svg">
<path d="M23.7312 0.567188C23.4675 0.201422 23.0449 0 22.5411 0C22.3045 0 22.0509 0.0445781 21.7874 0.132469L1.37676 6.936C0.671755 7.17098 0.185849 7.65122 0.0435835 8.25366C-0.0986821 8.85614 0.121115 9.50311 0.64663 10.0288C0.698005 10.0802 0.757068 10.1233 0.821662 10.1566L9.41483 14.5862L13.8446 23.1794C13.8778 23.244 13.921 23.303 13.9723 23.3544C14.3946 23.7767 14.8817 24 15.3809 24H15.381C16.137 24 16.7824 23.4728 17.0651 22.6243L23.8688 2.21367C24.0827 1.57177 24.0338 0.987047 23.7312 0.567188ZM1.41219 8.57686C1.4391 8.46281 1.59594 8.3453 1.82141 8.27011L21.1941 1.81252L9.80272 13.2039L1.57429 8.96245C1.45035 8.81761 1.38908 8.67474 1.41219 8.57686ZM15.731 22.1797C15.6643 22.3799 15.5373 22.5938 15.381 22.5938C15.2863 22.5938 15.1624 22.5325 15.0387 22.4267L10.7971 14.1983L22.1888 2.80659L15.731 22.1797Z" fill="white"/>
</svg>
