<svg width="18" height="21" viewBox="0 0 18 21" fill="none" xmlns="http://www.w3.org/2000/svg">
<path d="M15 0.5H3C2.20435 0.5 1.44129 0.816071 0.87868 1.37868C0.316071 1.94129 0 2.70435 0 3.5V17.5C0 18.2956 0.316071 19.0587 0.87868 19.6213C1.44129 20.1839 2.20435 20.5 3 20.5H15C15.7956 20.5 16.5587 20.1839 17.1213 19.6213C17.6839 19.0587 18 18.2956 18 17.5V3.5C18 2.70435 17.6839 1.94129 17.1213 1.37868C16.5587 0.816071 15.7956 0.5 15 0.5ZM5 4H9C9.26522 4 9.51957 4.10536 9.70711 4.29289C9.89464 4.48043 10 4.73478 10 5C10 5.26522 9.89464 5.51957 9.70711 5.70711C9.51957 5.89464 9.26522 6 9 6H5C4.73478 6 4.48043 5.89464 4.29289 5.70711C4.10536 5.51957 4 5.26522 4 5C4 4.73478 4.10536 4.48043 4.29289 4.29289C4.48043 4.10536 4.73478 4 5 4ZM13 17H5C4.73478 17 4.48043 16.8946 4.29289 16.7071C4.10536 16.5196 4 16.2652 4 16C4 15.7348 4.10536 15.4804 4.29289 15.2929C4.48043 15.1054 4.73478 15 5 15H13C13.2652 15 13.5196 15.1054 13.7071 15.2929C13.8946 15.4804 14 15.7348 14 16C14 16.2652 13.8946 16.5196 13.7071 16.7071C13.5196 16.8946 13.2652 17 13 17ZM13 13.33H5C4.73478 13.33 4.48043 13.2246 4.29289 13.0371C4.10536 12.8496 4 12.5952 4 12.33C4 12.0648 4.10536 11.8104 4.29289 11.6229C4.48043 11.4354 4.73478 11.33 5 11.33H13C13.2652 11.33 13.5196 11.4354 13.7071 11.6229C13.8946 11.8104 14 12.0648 14 12.33C14 12.5952 13.8946 12.8496 13.7071 13.0371C13.5196 13.2246 13.2652 13.33 13 13.33ZM13 9.67H5C4.73478 9.67 4.48043 9.56464 4.29289 9.37711C4.10536 9.18957 4 8.93522 4 8.67C4 8.40478 4.10536 8.15043 4.29289 7.96289C4.48043 7.77536 4.73478 7.67 5 7.67H13C13.2652 7.67 13.5196 7.77536 13.7071 7.96289C13.8946 8.15043 14 8.40478 14 8.67C14 8.93522 13.8946 9.18957 13.7071 9.37711C13.5196 9.56464 13.2652 9.67 13 9.67Z" fill="#BDBDBD"/>
</svg>
