<svg width="24" height="25" viewBox="0 0 24 25" fill="none" xmlns="http://www.w3.org/2000/svg">
<path d="M18.75 9.5C18.75 11.5707 17.0707 13.25 15 13.25C12.9293 13.25 11.25 11.5707 11.25 9.5C11.25 7.42925 12.9293 5.75 15 5.75C17.0707 5.75 18.75 7.42925 18.75 9.5Z" fill="#BDBDBD"/>
<path d="M15 4.8125C14.6895 4.8125 14.4375 4.5605 14.4375 4.25V3.5C14.4375 3.1895 14.6895 2.9375 15 2.9375C15.3105 2.9375 15.5625 3.1895 15.5625 3.5V4.25C15.5625 4.5605 15.3105 4.8125 15 4.8125Z" fill="#BDBDBD"/>
<path d="M15 16.0625C14.6895 16.0625 14.4375 15.8105 14.4375 15.5V14.75C14.4375 14.4395 14.6895 14.1875 15 14.1875C15.3105 14.1875 15.5625 14.4395 15.5625 14.75V15.5C15.5625 15.8105 15.3105 16.0625 15 16.0625Z" fill="#BDBDBD"/>
<path d="M17.6248 5.51524C17.5296 5.51524 17.4328 5.49124 17.3436 5.43949C17.0743 5.28424 16.9828 4.93999 17.1381 4.67149L17.9796 3.21499C18.1348 2.94574 18.4791 2.85349 18.7476 3.00949C19.0168 3.16474 19.1083 3.50899 18.9531 3.77749L18.1116 5.23399C18.0088 5.41474 17.8191 5.51524 17.6248 5.51524Z" fill="#BDBDBD"/>
<path d="M11.5389 16.0629C11.4436 16.0629 11.3469 16.0389 11.2576 15.9871C10.9884 15.8319 10.8969 15.4876 11.0521 15.2191L11.8914 13.7656C12.0466 13.4956 12.3909 13.4049 12.6594 13.5601C12.9286 13.7154 13.0201 14.0596 12.8649 14.3281L12.0256 15.7816C11.9221 15.9624 11.7331 16.0629 11.5389 16.0629Z" fill="#BDBDBD"/>
<path d="M19.5473 7.43765C19.353 7.43765 19.164 7.33715 19.0598 7.1564C18.9045 6.88715 18.9968 6.54365 19.2653 6.3884L19.9148 6.0134C20.1833 5.8574 20.5275 5.94965 20.6828 6.2189C20.838 6.48815 20.7458 6.83165 20.4773 6.9869L19.8278 7.3619C19.74 7.41365 19.6433 7.43765 19.5473 7.43765Z" fill="#BDBDBD"/>
<path d="M9.80509 13.0626C9.61084 13.0626 9.42184 12.9621 9.31759 12.7814C9.16234 12.5121 9.25459 12.1686 9.52309 12.0134L10.1726 11.6384C10.4403 11.4824 10.7853 11.5746 10.9406 11.8439C11.0958 12.1131 11.0036 12.4566 10.7351 12.6119L10.0856 12.9869C9.99784 13.0386 9.90109 13.0626 9.80509 13.0626Z" fill="#BDBDBD"/>
<path d="M21.75 10.0625H20.25C19.9395 10.0625 19.6875 9.8105 19.6875 9.5C19.6875 9.1895 19.9395 8.9375 20.25 8.9375H21.75C22.0605 8.9375 22.3125 9.1895 22.3125 9.5C22.3125 9.8105 22.0605 10.0625 21.75 10.0625Z" fill="#BDBDBD"/>
<path d="M9.75 10.0625H9C8.6895 10.0625 8.4375 9.8105 8.4375 9.5C8.4375 9.1895 8.6895 8.9375 9 8.9375H9.75C10.0605 8.9375 10.3125 9.1895 10.3125 9.5C10.3125 9.8105 10.0605 10.0625 9.75 10.0625Z" fill="#BDBDBD"/>
<path d="M20.1962 13.0623C20.1009 13.0623 20.0042 13.0383 19.9149 12.9866L19.2654 12.6116C18.9962 12.4563 18.9047 12.1121 19.0599 11.8436C19.2152 11.5743 19.5602 11.4828 19.8279 11.6381L20.4774 12.0131C20.7467 12.1683 20.8382 12.5126 20.6829 12.7811C20.5794 12.9618 20.3897 13.0623 20.1962 13.0623Z" fill="#BDBDBD"/>
<path d="M12.3748 5.51615C12.1806 5.51615 11.9916 5.41565 11.8873 5.2349L11.0481 3.7814C10.8928 3.51215 10.9851 3.16865 11.2536 3.0134C11.5221 2.8574 11.8663 2.94965 12.0216 3.2189L12.8608 4.6724C13.0161 4.94165 12.9238 5.28515 12.6553 5.4404C12.5676 5.49215 12.4708 5.51615 12.3748 5.51615Z" fill="#BDBDBD"/>
<path d="M17.7163 17.1943C17.9473 17.036 18.2473 17.267 18.1445 17.528C16.781 20.996 13.244 23.3698 9.20528 22.9513C5.21228 22.538 1.96103 19.286 1.54778 15.293C1.12928 11.255 3.50303 7.71802 6.97103 6.35452C7.23203 6.25252 7.46303 6.55177 7.30478 6.78277C6.23528 8.34652 5.73878 10.3325 6.13628 12.446C6.69503 15.4175 9.08228 17.804 12.0538 18.3635C14.1665 18.7603 16.1525 18.2638 17.7163 17.1943Z" fill="#BDBDBD"/>
</svg>
