<svg width="25" height="24" viewBox="0 0 25 24" fill="none" xmlns="http://www.w3.org/2000/svg">
<path d="M13.2499 4.5375V3H13.9999C14.1988 3 14.3896 2.92098 14.5302 2.78033C14.6709 2.63968 14.7499 2.44891 14.7499 2.25C14.7499 2.05109 14.6709 1.86032 14.5302 1.71967C14.3896 1.57902 14.1988 1.5 13.9999 1.5H10.9999C10.801 1.5 10.6102 1.57902 10.4696 1.71967C10.3289 1.86032 10.2499 2.05109 10.2499 2.25C10.2499 2.44891 10.3289 2.63968 10.4696 2.78033C10.6102 2.92098 10.801 3 10.9999 3H11.7499V4.5375C9.88653 4.69075 8.11834 5.42531 6.6949 6.6375L6.05739 6L6.28239 5.7825C6.42362 5.64127 6.50296 5.44973 6.50296 5.25C6.50296 5.05027 6.42362 4.85873 6.28239 4.7175C6.14117 4.57627 5.94962 4.49693 5.7499 4.49693C5.55017 4.49693 5.35862 4.57627 5.21739 4.7175L3.71739 6.2175C3.57617 6.35873 3.49683 6.55027 3.49683 6.75C3.49683 6.94973 3.57617 7.14127 3.71739 7.2825C3.85862 7.42373 4.05017 7.50307 4.24989 7.50307C4.44962 7.50307 4.64117 7.42373 4.7824 7.2825L4.99989 7.0575L5.63739 7.695C4.33408 9.23597 3.58653 11.1703 3.51483 13.1872C3.44314 15.2042 4.05145 17.1867 5.24205 18.8163C6.43266 20.4459 8.13646 21.6281 10.0798 22.1729C12.0231 22.7177 14.0931 22.5935 15.9573 21.8202C17.8215 21.047 19.3718 19.6696 20.359 17.9093C21.3462 16.149 21.7131 14.108 21.4007 12.1141C21.0884 10.1202 20.1149 8.2891 18.6367 6.91503C17.1584 5.54095 15.2613 4.70361 13.2499 4.5375ZM12.4999 21C11.0165 21 9.56649 20.5601 8.33312 19.736C7.09975 18.9119 6.13846 17.7406 5.5708 16.3701C5.00314 14.9997 4.85462 13.4917 5.14401 12.0368C5.43339 10.582 6.1477 9.24559 7.19659 8.1967C8.24549 7.14781 9.58186 6.4335 11.0367 6.14411C12.4916 5.85472 13.9996 6.00325 15.37 6.5709C16.7405 7.13856 17.9118 8.09985 18.7359 9.33322C19.56 10.5666 19.9999 12.0166 19.9999 13.5C19.9999 14.4849 19.8059 15.4602 19.429 16.3701C19.0521 17.2801 18.4996 18.1069 17.8032 18.8033C17.1068 19.4997 16.28 20.0522 15.37 20.4291C14.4601 20.806 13.4848 21 12.4999 21Z" fill="#FCFCFC"/>
<path d="M12.5 7.5C11.3133 7.5 10.1533 7.85189 9.16658 8.51118C8.17989 9.17047 7.41085 10.1075 6.95673 11.2039C6.5026 12.3003 6.38378 13.5067 6.61529 14.6705C6.8468 15.8344 7.41825 16.9035 8.25736 17.7426C9.09648 18.5818 10.1656 19.1532 11.3295 19.3847C12.4933 19.6162 13.6997 19.4974 14.7961 19.0433C15.8925 18.5892 16.8295 17.8201 17.4888 16.8334C18.1481 15.8467 18.5 14.6867 18.5 13.5C18.5 11.9087 17.8679 10.3826 16.7426 9.25736C15.6174 8.13214 14.0913 7.5 12.5 7.5ZM16.0625 16.245C15.9311 16.394 15.746 16.4848 15.5477 16.4975C15.3495 16.5101 15.1543 16.4436 15.005 16.3125L12.005 13.6575C11.925 13.5872 11.8609 13.5007 11.8169 13.4037C11.7729 13.3067 11.7501 13.2015 11.75 13.095V9.75C11.75 9.55109 11.829 9.36032 11.9697 9.21967C12.1103 9.07902 12.3011 9 12.5 9C12.6989 9 12.8897 9.07902 13.0303 9.21967C13.171 9.36032 13.25 9.55109 13.25 9.75V12.75L15.995 15.18C16.0699 15.2452 16.1311 15.3245 16.1751 15.4135C16.2191 15.5025 16.245 15.5993 16.2512 15.6984C16.2575 15.7975 16.2441 15.8968 16.2117 15.9906C16.1793 16.0844 16.1286 16.1709 16.0625 16.245Z" fill="#FCFCFC"/>
</svg>
