<svg width="32" height="32" viewBox="0 0 32 32" fill="none" xmlns="http://www.w3.org/2000/svg">
<g clip-path="url(#clip0_1103_26491)">
<path d="M8.33255 26.0018C6.19788 26.0018 4.29922 24.6351 3.60988 22.6005L3.56322 22.4471C3.40055 21.9085 3.33255 21.4551 3.33255 21.0018V11.9111L0.0978818 22.7085C-0.318118 24.2965 0.629882 25.9431 2.22055 26.3818L22.8379 31.9031C23.0952 31.9698 23.3526 32.0018 23.6059 32.0018C24.9339 32.0018 26.1472 31.1205 26.4872 29.8218L27.6886 26.0018H8.33255Z" fill="white"/>
<path d="M11.9999 12.0018C13.4706 12.0018 14.6666 10.8058 14.6666 9.33512C14.6666 7.86446 13.4706 6.66846 11.9999 6.66846C10.5293 6.66846 9.33325 7.86446 9.33325 9.33512C9.33325 10.8058 10.5293 12.0018 11.9999 12.0018Z" fill="white"/>
<path d="M28.6666 2.66675H8.66659C6.82925 2.66675 5.33325 4.16275 5.33325 6.00008V20.6667C5.33325 22.5041 6.82925 24.0001 8.66659 24.0001H28.6666C30.5039 24.0001 31.9999 22.5041 31.9999 20.6667V6.00008C31.9999 4.16275 30.5039 2.66675 28.6666 2.66675ZM8.66659 5.33341H28.6666C29.0346 5.33341 29.3333 5.63208 29.3333 6.00008V15.4654L25.1213 10.5507C24.6746 10.0267 24.0279 9.74675 23.3333 9.73075C22.6426 9.73475 21.9946 10.0414 21.5519 10.5721L16.5999 16.5161L14.9866 14.9067C14.0746 13.9947 12.5906 13.9947 11.6799 14.9067L7.99992 18.5854V6.00008C7.99992 5.63208 8.29859 5.33341 8.66659 5.33341Z" fill="white"/>
</g>
<defs>
<clipPath id="clip0_1103_26491">
<rect width="32" height="32" fill="white"/>
</clipPath>
</defs>
</svg>
