<svg width="204" height="204" viewBox="0 0 204 204" fill="none" xmlns="http://www.w3.org/2000/svg">
<g clip-path="url(#clip0_494_27235)">
<path fill-rule="evenodd" clip-rule="evenodd" d="M101.901 0.168213C158.231 0.168213 203.901 45.824 203.901 102.153C203.901 158.483 158.231 204.167 101.901 204.167C45.5715 204.167 -0.0986328 158.483 -0.0986328 102.153C-0.0986328 45.824 45.5687 0.168213 101.901 0.168213Z" fill="#6C27B3"/>
<path fill-rule="evenodd" clip-rule="evenodd" d="M64.6319 134.592C64.2295 134.592 63.8436 134.752 63.559 135.037C63.2745 135.321 63.1146 135.707 63.1146 136.11C63.1146 136.512 63.2745 136.898 63.559 137.182C63.8436 137.467 64.2295 137.627 64.6319 137.627H99.0521C99.4545 137.627 99.8404 137.467 100.125 137.182C100.41 136.898 100.569 136.512 100.569 136.11C100.569 135.707 100.41 135.321 100.125 135.037C99.8404 134.752 99.4545 134.592 99.0521 134.592H64.6319ZM85.0976 120.639C85.0981 120.44 85.0592 120.242 84.9831 120.058C84.907 119.873 84.7952 119.706 84.6542 119.565C84.5132 119.424 84.3457 119.312 84.1613 119.236C83.977 119.16 83.7794 119.121 83.58 119.121H63.984C63.5857 119.128 63.2059 119.291 62.9265 119.575C62.6472 119.859 62.4906 120.241 62.4906 120.639C62.4906 121.038 62.6472 121.42 62.9265 121.704C63.2059 121.988 63.5857 122.151 63.984 122.157H83.58C83.7793 122.157 83.9767 122.118 84.1609 122.042C84.345 121.965 84.5123 121.853 84.6533 121.712C84.7942 121.571 84.906 121.404 84.9822 121.22C85.0585 121.036 85.0977 120.838 85.0976 120.639ZM70.8308 106.371C70.8306 105.969 70.6705 105.583 70.3859 105.298C70.1012 105.014 69.7152 104.854 69.3127 104.854H39.2068C38.8043 104.854 38.4183 105.014 38.1336 105.298C37.849 105.583 37.6891 105.969 37.6891 106.371C37.6891 106.774 37.849 107.16 38.1336 107.445C38.4183 107.729 38.8043 107.889 39.2068 107.889H69.3127C69.5121 107.889 69.7095 107.85 69.8936 107.774C70.0778 107.697 70.2452 107.586 70.3861 107.445C70.5271 107.304 70.6389 107.136 70.7152 106.952C70.7915 106.768 70.8308 106.571 70.8308 106.371ZM37.1074 80.93C37.1075 81.3324 37.2675 81.7184 37.552 82.003C37.8366 82.2876 38.2226 82.4475 38.6251 82.4476H67.7285C68.1266 82.4412 68.5062 82.2785 68.7855 81.9947C69.0647 81.7109 69.2212 81.3287 69.2212 80.9306C69.2212 80.5324 69.0647 80.1502 68.7855 79.8664C68.5062 79.5826 68.1266 79.42 67.7285 79.4135H38.6251C38.2228 79.4136 37.837 79.5734 37.5525 79.8577C37.2679 80.142 37.1078 80.5277 37.1074 80.93ZM96.781 109.94L98.3086 108.412L80.618 90.7212L79.0884 92.2496L96.779 109.94H96.781ZM82.0388 87.5715L101.458 106.991C101.835 107.368 102.046 107.879 102.046 108.412C102.046 108.944 101.835 109.455 101.458 109.833L98.2006 113.091C97.823 113.467 97.3121 113.678 96.7796 113.678C96.2471 113.678 95.7363 113.467 95.3586 113.091L75.9376 93.6728C75.5616 93.2949 75.3506 92.7836 75.3506 92.2506C75.3506 91.7176 75.5616 91.2062 75.9376 90.8283L79.1972 87.5723C79.5743 87.1957 80.0854 86.9842 80.6184 86.9842C81.1513 86.9842 81.6625 87.1957 82.0396 87.5723L82.0388 87.5715ZM165.87 114.08C166.398 113.549 166.694 112.832 166.694 112.083C166.694 111.335 166.398 110.617 165.87 110.087L109.332 53.545C108.8 53.0183 108.082 52.7229 107.333 52.7229C106.585 52.7229 105.867 53.0183 105.335 53.545L99.6243 59.2581L115.645 102.12C115.778 102.503 115.996 102.851 116.283 103.138C116.57 103.425 116.918 103.643 117.301 103.776L160.16 119.794L165.87 114.08ZM129.166 150.788C128.636 151.316 127.918 151.613 127.169 151.613C126.421 151.613 125.703 151.316 125.172 150.788L68.6302 94.2497C68.1022 93.7186 67.8059 93.0001 67.8059 92.2512C67.8059 91.5022 68.1022 90.7838 68.6302 90.2526L97.1145 61.7671L112.618 103.248C112.912 104.065 113.383 104.808 113.997 105.423C114.611 106.037 115.353 106.509 116.171 106.803L157.648 122.303L129.166 150.788Z" fill="white"/>
</g>
<defs>
<clipPath id="clip0_494_27235">
<rect width="204" height="204" fill="white"/>
</clipPath>
</defs>
</svg>
