<?xml version="1.0" encoding="UTF-8"?>
<svg id="Layer_2" data-name="Layer 2" xmlns="http://www.w3.org/2000/svg" xmlns:xlink="http://www.w3.org/1999/xlink" viewBox="0 0 147.46 88.31">
  <defs>
    <style>
      .cls-1 {
        fill: url(#linear-gradient);
      }

      .cls-1, .cls-2, .cls-3, .cls-4, .cls-5, .cls-6, .cls-7, .cls-8, .cls-9 {
        stroke-width: 0px;
      }

      .cls-2 {
        fill: url(#linear-gradient-6);
      }

      .cls-3 {
        fill: url(#linear-gradient-5);
      }

      .cls-4 {
        fill: none;
      }

      .cls-5 {
        fill: url(#linear-gradient-2);
      }

      .cls-6 {
        fill: url(#linear-gradient-7);
      }

      .cls-7 {
        fill: url(#linear-gradient-3);
      }

      .cls-10 {
        clip-path: url(#clippath);
      }

      .cls-8 {
        fill: url(#linear-gradient-8);
      }

      .cls-9 {
        fill: url(#linear-gradient-4);
      }
    </style>
    <linearGradient id="linear-gradient" x1="58.15" y1="193.74" x2="58.15" y2="233.63" gradientTransform="translate(1.58 -145.32)" gradientUnits="userSpaceOnUse">
      <stop offset="0" stop-color="#000"/>
      <stop offset=".01" stop-color="#08030d"/>
      <stop offset=".06" stop-color="#280e40"/>
      <stop offset=".12" stop-color="#45186d"/>
      <stop offset=".17" stop-color="#5d2193"/>
      <stop offset=".23" stop-color="#7027b2"/>
      <stop offset=".29" stop-color="#7f2dc9"/>
      <stop offset=".35" stop-color="#8a31da"/>
      <stop offset=".42" stop-color="#9033e4"/>
      <stop offset=".5" stop-color="#9334e8"/>
      <stop offset=".58" stop-color="#9033e4"/>
      <stop offset=".65" stop-color="#8a31da"/>
      <stop offset=".71" stop-color="#7f2dc9"/>
      <stop offset=".77" stop-color="#7027b2"/>
      <stop offset=".83" stop-color="#5d2193"/>
      <stop offset=".88" stop-color="#45186d"/>
      <stop offset=".94" stop-color="#280e40"/>
      <stop offset=".99" stop-color="#08030d"/>
      <stop offset="1" stop-color="#000"/>
    </linearGradient>
    <linearGradient id="linear-gradient-2" x1="-1459.09" y1="-842.93" x2="-1459.09" y2="-755.05" gradientTransform="translate(-1429.42 -754.64) rotate(-180)" gradientUnits="userSpaceOnUse">
      <stop offset="0" stop-color="#6d29da"/>
      <stop offset=".16" stop-color="#712adb"/>
      <stop offset=".33" stop-color="#7d2de0"/>
      <stop offset=".49" stop-color="#9233e7"/>
      <stop offset=".5" stop-color="#9334e8"/>
      <stop offset=".51" stop-color="#9233e7"/>
      <stop offset=".67" stop-color="#7d2de0"/>
      <stop offset=".84" stop-color="#712adb"/>
      <stop offset="1" stop-color="#6d29da"/>
    </linearGradient>
    <linearGradient id="linear-gradient-3" x1="117.23" y1="145.39" x2="117.23" y2="233.62" gradientTransform="translate(1.58 -145.32)" gradientUnits="userSpaceOnUse">
      <stop offset="0" stop-color="#1e0b2f"/>
      <stop offset=".32" stop-color="#6724a2"/>
      <stop offset=".5" stop-color="#9334e8"/>
      <stop offset=".58" stop-color="#9033e4"/>
      <stop offset=".65" stop-color="#8a31da"/>
      <stop offset=".71" stop-color="#7f2dc9"/>
      <stop offset=".77" stop-color="#7027b2"/>
      <stop offset=".83" stop-color="#5d2193"/>
      <stop offset=".88" stop-color="#45186d"/>
      <stop offset=".94" stop-color="#280e40"/>
      <stop offset=".99" stop-color="#08030d"/>
      <stop offset="1" stop-color="#000"/>
    </linearGradient>
    <linearGradient id="linear-gradient-4" x1="-1518.21" y1="-842.95" x2="-1518.21" y2="-803.06" gradientTransform="translate(-1429.42 -754.64) rotate(-180)" gradientUnits="userSpaceOnUse">
      <stop offset="0" stop-color="#6d29da"/>
      <stop offset=".16" stop-color="#712adb"/>
      <stop offset=".33" stop-color="#7e2de0"/>
      <stop offset=".5" stop-color="#9334e8"/>
      <stop offset=".66" stop-color="#802ee1"/>
      <stop offset=".84" stop-color="#722adb"/>
      <stop offset="1" stop-color="#6d29da"/>
    </linearGradient>
    <linearGradient id="linear-gradient-5" x1="-1518.73" y1="-649.2" x2="-1518.73" y2="-609.31" gradientTransform="translate(-1431.01 -609.31) rotate(-180)" xlink:href="#linear-gradient"/>
    <linearGradient id="linear-gradient-6" x1="117.79" y1=".01" x2="117.79" y2="87.9" gradientTransform="matrix(1,0,0,1,0,0)" xlink:href="#linear-gradient-2"/>
    <linearGradient id="linear-gradient-7" x1="-1459.65" y1="-697.55" x2="-1459.65" y2="-609.33" gradientTransform="translate(-1431.01 -609.31) rotate(-180)" xlink:href="#linear-gradient-3"/>
    <linearGradient id="linear-gradient-8" x1="58.67" y1="0" x2="58.67" y2="39.89" gradientTransform="matrix(1,0,0,1,0,0)" xlink:href="#linear-gradient-4"/>
    <clipPath id="clippath">
      <path class="cls-4" d="M-.78-1.93v92.24h150.24V-1.93H-.78ZM120.74,85c-3.65-4-7.84-13.62-9.21-39.56,0-.02,0-.05,0-.07.08-.96.16-1.92.22-2.91,1-19,3.57-31.48,7.84-38.05,5.1,5.24,11.51,16.57,13.04,40.82.23,3.61.52,6.9.86,9.92-2.78,17.14-8.46,25.69-12.75,29.85Z"/>
    </clipPath>
  </defs>
  <g id="Dimensions">
    <g>
      <g>
        <path class="cls-1" d="M85.01,48.51s-10.99.34-13.61,19.52c-2.63,19.18-13.34,20.27-13.34,20.27h-23.59s12.74.96,15.84-20.36c1.95-17.08,9.7-18.78,13.34-19.52,3.98,0,21.36.09,21.36.09Z"/>
        <path class="cls-5" d="M1.22.61s10.99.74,13.61,42.46c2.63,41.72,19.7,45.22,19.7,45.22h23.59s-19.1.94-22.2-45.42C33.97,5.73,26.22,2.03,22.58.41,18.6.41,1.22.61,1.22.61Z"/>
        <path class="cls-7" d="M147.46.27s-10.99.74-13.61,42.46c-2.63,41.72-20.08,45.56-20.08,45.56h-23.59s19.47.6,22.57-45.76C114.7,5.39,122.45,1.69,126.09.07c3.98,0,21.36.2,21.36.2Z"/>
        <path class="cls-9" d="M63.51,48.51s10.99.34,13.61,19.52c2.63,19.18,13.34,20.27,13.34,20.27h23.59s-12.74.96-15.84-20.36c-1.95-17.08-9.7-18.78-13.34-19.52-3.98,0-21.36.09-21.36.09Z"/>
      </g>
      <g>
        <path class="cls-3" d="M62.45,39.8s10.99-.34,13.61-19.52C78.69,1.09,89.41,0,89.41,0h23.59s-12.74-.96-15.84,20.36c-1.95,17.08-9.7,18.78-13.34,19.52-3.98,0-21.36-.09-21.36-.09Z"/>
        <path class="cls-2" d="M146.24,87.7s-10.99-.74-13.61-42.46C130,3.52,112.93.01,112.93.01h-23.59s19.1-.94,22.2,45.42c1.95,37.13,9.7,40.84,13.34,42.46,3.98,0,21.36-.2,21.36-.2Z"/>
        <path class="cls-6" d="M0,88.04s10.99-.74,13.61-42.46C16.24,3.86,33.69.01,33.69.01h23.59s-19.47-.6-22.57,45.76c-1.95,37.13-9.7,40.84-13.34,42.46-3.98,0-21.36-.2-21.36-.2Z"/>
        <path class="cls-8" d="M83.95,39.8s-10.99-.34-13.61-19.52C67.7,1.09,56.99,0,56.99,0h-23.59s12.74-.96,15.84,20.36c1.95,17.08,9.7,18.78,13.34,19.52,3.98,0,21.36-.09,21.36-.09Z"/>
      </g>
      <g class="cls-10">
        <g>
          <path class="cls-1" d="M85.01,48.51s-10.99.34-13.61,19.52c-2.63,19.18-13.34,20.27-13.34,20.27h-23.59s12.74.96,15.84-20.36c1.95-17.08,9.7-18.78,13.34-19.52,3.98,0,21.36.09,21.36.09Z"/>
          <path class="cls-5" d="M1.22.61s10.99.74,13.61,42.46c2.63,41.72,19.7,45.22,19.7,45.22h23.59s-19.1.94-22.2-45.42C33.97,5.73,26.22,2.03,22.58.41,18.6.41,1.22.61,1.22.61Z"/>
          <path class="cls-7" d="M147.46.27s-10.99.74-13.61,42.46c-2.63,41.72-20.08,45.56-20.08,45.56h-23.59s19.47.6,22.57-45.76C114.7,5.39,122.45,1.69,126.09.07c3.98,0,21.36.2,21.36.2Z"/>
          <path class="cls-9" d="M63.51,48.51s10.99.34,13.61,19.52c2.63,19.18,13.34,20.27,13.34,20.27h23.59s-12.74.96-15.84-20.36c-1.95-17.08-9.7-18.78-13.34-19.52-3.98,0-21.36.09-21.36.09Z"/>
        </g>
      </g>
    </g>
  </g>
</svg>